<?xml version="1.0" standalone="no"?>
<!DOCTYPE svg PUBLIC "-//W3C//DTD SVG 1.1//EN" "http://www.w3.org/Graphics/SVG/1.1/DTD/svg11.dtd" >
<svg xmlns="http://www.w3.org/2000/svg">
<metadata>Generated by IcoMoon</metadata>
<defs>
<font id="font-icons" horiz-adv-x="1024">
<font-face units-per-em="1024" ascent="870.4" descent="-153.6" />
<missing-glyph horiz-adv-x="1024" />
<glyph unicode="&#x20;" horiz-adv-x="0" d="" />
<glyph unicode="&#xe600;" glyph-name="type" d="M853.332 736v85.332h-256v-85.332h85.332v-768h-85.332v-85.332h256v85.332h-85.332v768zM597.332 636.076c0 4.438-8.32 9.772-13.654 13.568-23.51 17.536-49.494 28.972-78.336 34.262-28.844 5.332-62.508 7.978-101.248 7.978-28.074 0-56.916-4.438-86.4-13.484-29.524-9.002-54.612-19.924-75.348-32.896-24.022-15.188-43.478-32.512-58.454-51.84-14.976-19.372-22.484-39.68-22.484-60.884 0-20.31 5.42-38.614 16.256-54.998s27.776-24.534 50.816-24.534c25.812 0 45.996 6.656 60.544 20.096 14.548 13.312 21.802 28.074 21.802 44.246 0 15.19-2.218 31.788-6.572 49.792-4.438 17.964-6.572 31.574-6.572 40.788 7.382 7.852 20.18 15.318 38.4 22.486 18.176 7.168 37.93 10.708 59.136 10.708 30.892 0 54.74-6.314 71.596-18.986 16.854-12.716 29.868-27.564 39.082-44.63 8.278-15.232 6.1-49.75 6.1-49.75v-101.76c0-11.988-57.9-28.586-121.344-49.792s-102.016-35.712-122.796-43.564c-16.556-6.486-32.512-15.148-51.456-25.942-18.902-10.88-33.28-23.168-44.844-37.034-14.764-16.596-25.388-35.244-32.768-55.98s-10.796-44.246-10.796-70.572c0-50.73 16.596-91.776 49.578-123.136 32.938-31.318 75.092-47.062 126.252-47.062 48.428 0 89.812 18.986 124.16 36.48 34.432 17.62 66.604 43.692 96.556 86.356h4.182c6.016-42.668 19.37-67.028 40.788-83.884l27.818-1.452v625.408zM523.178 128.982c-17.068-21.716-38.058-40.49-62.932-56.49-24.918-15.914-53.76-23.936-86.486-23.936-30.932 0-56.362 9.004-76.416 27.092-20.096 18.004-30.080 46.164-30.080 84.48 0 29.568 6.656 55.168 20.096 76.63 13.312 21.548 31.572 40.106 54.572 55.808 25.428 16.682 52.822 30.506 82.346 41.644 29.484 11.092 59.648 21.248 98.9 32.726v-237.952z" />
<glyph unicode="&#xe601;" glyph-name="box" d="M42.668 736v-298.668h42.668v-469.334h853.332v469.334h42.668v298.668h-938.668zM853.332 53.334h-682.668v384h682.668v-384zM896 522.668h-768v128h768v-128zM768 394.668h-512v-298.668h512v298.668zM725.332 138.668h-426.666v213.332h426.666v-213.332zM682.668 309.334h-341.334v-42.668h341.334v42.668zM554.668 224h-213.332v-42.668h213.332v42.668z" />
<glyph unicode="&#xe602;" glyph-name="archive" d="M896 394.668v298.666h-128v128h-682.668v-426.666h-42.668v-85.334h42.668v-469.332h853.332v469.332h42.668v85.334h-85.332zM810.668 608v-213.334h-512v213.334h512zM170.668 736h512v-42.668h-469.334v-298.666h-42.668v341.334zM853.332-74.666h-682.668v384h682.668v-384zM768 266.668h-512v-298.668h512v298.666zM725.332 10.668h-426.666v213.332h426.666v-213.332zM682.668 181.334h-341.334v-42.668h341.334v42.668zM554.668 96h-213.332v-42.668h213.332v42.668z" />
<glyph unicode="&#xe603;" glyph-name="envelope" d="M42.668 608v-554.666h896v554.666h-896zM128 138.668v335.616l663.212-335.616h-663.212zM853.332 183.51l-272.128 145.366 272.128 145.408v-290.774zM515.754 377.26l-286.122 145.408h562.986l-276.864-145.408z" />
<glyph unicode="&#xe604;" glyph-name="email" d="M554.668 608h-256v-85.334h256v85.334zM682.668 480h-384v-42.668h384v42.668zM682.668 394.668h-384v-42.668h384v42.668zM853.332 351.958v469.376h-725.332v-470.74l-85.332 44.076v-554.666h896v554.326l-85.332-42.368zM213.332 736h554.668v-422.784l-85.332-45.74v41.856h-384v-42.668h382.506l-191.658-102.74-276.18 142.634v429.44zM128-74.666v335.616l625.11-335.616h-625.11zM853.332-29.824l-272.128 145.366 272.128 145.408v-290.774z" />
<glyph unicode="&#xe605;" glyph-name="files" d="M213.332 864v-128h-128v-896h725.332v128h128v896h-725.332zM725.332-74.666h-554.668v725.334h42.668v-682.668h512v-42.668zM853.332 53.334h-554.668v725.332h554.668v-725.332zM640 650.668h-256v-85.332h256v85.332zM768 522.668h-384v-42.666h384v42.666zM768 437.334h-384v-42.666h384v42.668zM768 352h-384v-42.668h384v42.668zM512 266.668h-128v-42.668h128v42.668z" />
<glyph unicode="&#xe606;" glyph-name="printer2" d="M923.434 352h-70.1v426.668h-725.332v-426.668h-57.9c-46.932 0-70.1-38.4-70.1-85.332v-85.332c0-46.932 23.168-85.332 70.1-85.332h57.9v-213.332h256v213.332h85.332v-213.332h341.332v213.332h112.768c46.932 0 100.566 38.4 100.566 85.332v85.332c0 46.932-53.674 85.332-100.566 85.332zM298.666-32h-85.332v128h85.332v-128zM597.332-32h-42.668v128h42.668v-128zM725.332-32h-42.668v128h42.668v-128zM768 352h-554.668v341.334h554.668v-341.334zM864.768 156.288c-35.924 0-64.98 29.14-64.98 65.024s29.1 65.024 64.98 65.024 65.068-29.14 65.068-65.024-29.184-65.024-65.068-65.024zM298.666 565.334h256v-85.332h-256zM298.666 437.334h384v-42.666h-384zM42.668 650.668h42.668v-213.332h-42.668zM896 565.334h42.668v-128h-42.668z" />
<glyph unicode="&#xe607;" glyph-name="folder-add" d="M597.332 736v42.666c0 47.104-38.23 85.332-85.332 85.332h-170.668c-47.104 0-85.332-38.228-85.332-85.332v-42.666h-170.668v-128h-42.668v-298.668h85.332v213.332h768v-512h-469.334v-85.332h554.668v810.668h-384zM896 608h-725.332v42.666h170.668v128h170.668v-128h384v-42.666zM256 266.668h-128v-128h-128v-128h128v-128h128v128h128v128h-128z" />
<glyph unicode="&#xe608;" glyph-name="folder-settings" d="M597.332 693.334v42.668c0 47.104-38.23 85.332-85.332 85.332h-170.668c-47.104 0-85.332-38.23-85.332-85.332v-42.668h-170.668v-128h-42.668v-298.668h85.332v213.332h768v-512h-469.334v-85.332h554.668v810.668h-384zM896 565.334h-725.332v42.668h170.668v128h170.668v-128h384v-42.668zM317.782 31.104c1.706 7.168 2.176 14.592 2.176 22.23 0 7.68-1.024 15.062-2.688 22.23l65.834 39.38-37.888 57.856-62.080-39.552c-9.088 6.912-26.412 12.416-26.412 16.212v74.538h-86.784v-74.538c0-3.798-17.324-9.302-26.412-16.212l-62.080 39.552-37.888-57.856 65.834-39.38c-1.62-7.168-2.688-14.548-2.688-22.23 0-7.636 0.468-15.062 2.176-22.23l-66.304-39.38 36.82-57.9 64.086 39.596c9.132-6.912 26.454-12.416 26.454-16.256v-74.496h86.742v74.496c0 3.84 17.322 9.344 26.452 16.256l64.084-39.596 36.82 57.9-66.26 39.38zM213.332-14.89c-39.168 0.256-70.912 30.678-70.912 68.224s31.744 67.968 70.912 68.224c39.168-0.256 70.912-30.678 70.912-68.224s-31.744-67.968-70.912-68.224z" />
<glyph unicode="&#xe609;" glyph-name="folder-check" d="M597.332 693.334v42.668c0 47.104-38.23 85.332-85.332 85.332h-170.668c-47.104 0-85.332-38.23-85.332-85.332v-42.668h-170.668v-128h-42.668v-298.668h85.332v213.332h768v-512h-469.334v-85.332h554.668v810.668h-384zM896 565.334h-725.332v42.668h170.668v128h170.668v-128h384v-42.668zM170.752 32l-31.7 80-63.276-78.848 104.106-139.562 171.52 278.826-62.848 36.908z" />
<glyph unicode="&#xe60a;" glyph-name="wifi-low" d="M512 483.414c-83.584 0-159.232-33.878-214.016-88.662l60.416-60.416c39.338 39.382 93.654 63.744 153.6 63.744s114.26-24.362 153.6-63.744l60.416 60.416c-54.784 54.784-130.432 88.662-214.016 88.662zM512 305.964c-35.328 0-64-28.716-64-64.044s28.672-64 64-64 64 28.672 64 64-28.672 64.044-64 64.044z" />
<glyph unicode="&#xe60b;" glyph-name="wifi-mid" d="M297.984 312.832l60.416-60.416c39.338 39.338 93.654 63.744 153.6 63.744s114.26-24.404 153.6-63.744l60.416 60.416c-54.784 54.784-130.432 88.662-214.016 88.662s-159.232-33.878-214.016-88.662zM512 596.182c-137.344 0-261.676-55.68-351.658-145.664l60.502-60.5c74.58 74.624 177.58 120.832 291.158 120.832s216.576-46.208 291.156-120.832l60.5 60.5c-89.984 89.984-214.316 145.664-351.658 145.664zM512 224c-35.328 0-64-28.672-64-64s28.672-64 64-64 64 28.672 64 64-28.672 64-64 64z" />
<glyph unicode="&#xe60c;" glyph-name="wifi-full" d="M297.984 184.832l60.416-60.416c39.338 39.338 93.654 63.744 153.6 63.744s114.26-24.404 153.6-63.744l60.416 60.416c-54.784 54.74-130.432 88.662-214.016 88.662s-159.232-33.92-214.016-88.662zM160.342 322.518l60.502-60.5c74.58 74.624 177.58 120.832 291.158 120.832s216.576-46.208 291.156-120.832l60.5 60.5c-89.984 89.984-214.316 145.664-351.658 145.664s-261.676-55.68-351.658-145.664zM512 662.828c-191.104 0-364.074-77.44-489.344-202.71l60.544-60.544c109.868 109.868 261.548 177.92 428.8 177.92s318.932-68.052 428.8-177.92l60.544 60.544c-125.27 125.27-298.24 202.71-489.344 202.71zM512 96c-35.328 0-64-28.672-64-64s28.672-64 64-64 64 28.672 64 64-28.672 64-64 64z" />
<glyph unicode="&#xe60d;" glyph-name="connection-empty" d="M597.332 778.668v-170.666h-170.668v-170.668h-170.668v-170.668h-170.668v-341.334h810.668v853.332h-298.666zM298.666 10.668h-128v170.668h128v-170.668zM469.334 10.668h-128v341.334h128v-341.334zM640 10.668h-128v512h128v-512zM810.668 10.668h-128v682.668h128v-682.668z" />
<glyph unicode="&#xe60e;" glyph-name="battery-full" d="M888.32 522.668c-17.578 49.664-64.98 85.334-120.576 85.334h-639.446c-70.528 0-127.872-57.43-127.872-128v-298.668c0-70.572 57.344-128 127.872-128h639.446c55.596 0 102.996 35.668 120.576 85.332h92.586v384h-92.586zM810.41 181.334c0-23.51-19.158-42.668-42.668-42.668h-639.446c-23.552 0-42.624 19.158-42.624 42.668v298.668c0 23.51 19.072 42.668 42.624 42.668h639.446c23.51 0 42.668-19.158 42.668-42.668v-298.668zM895.658 224h-42.668v213.334h42.668v-213.334zM298.796 480h127.916v-298.668h-127.916zM469.334 480h127.916v-298.668h-127.916zM703.828 480h-64v-298.668h64c35.158 0 63.914 38.4 63.914 85.332v128c0 46.932-28.756 85.334-63.914 85.334zM128.3 394.668v-128c0-46.932 28.758-85.332 63.956-85.332h63.914v298.668h-63.914c-35.2 0-63.956-38.4-63.956-85.334z" />
<glyph unicode="&#xe60f;" glyph-name="settings" d="M426.582 501.42c86.996 0 157.952-65.322 168.534-149.418h150.016c-1.408 20.14-4.14 39.894-9.044 58.838l121.216 69.974-85.376 147.884-121.044-69.888c-38.188 37.59-85.76 65.366-138.88 80.084v139.86h-170.752v-139.86c-53.12-14.676-100.736-42.496-138.924-80.042l-121.004 69.844-85.376-147.882 121.132-69.932c-6.612-25.686-10.54-52.394-10.54-80.128s3.882-54.486 10.54-80.128l-121.132-69.972 85.376-147.84 120.96 69.846c38.188-37.588 85.844-65.366 138.964-80.044v-139.86h170.752v301.014c-25.216-14.678-54.144-23.722-85.418-23.722-94.252 0-170.668 76.416-170.668 170.668s76.416 170.71 170.668 170.71zM981.248 96c0 15.788-2.816 30.804-6.87 45.312l79.232 45.74-42.624 73.812-78.678-45.398c-21.376 21.76-48.64 37.332-79.062 45.27v91.264h-85.248v-91.264c-30.506-7.85-57.77-23.424-79.188-45.226l-78.548 45.356-42.624-73.812 79.062-45.61c-4.052-14.592-6.912-29.61-6.912-45.44s2.86-30.89 6.912-45.44l-79.062-45.61 42.624-73.812 78.548 45.356c21.418-21.802 48.726-37.376 79.188-45.226v-91.264h85.248v91.306c30.422 7.936 57.684 23.51 79.062 45.27l78.72-45.44 42.624 73.812-79.232 45.74c4.010 14.506 6.826 29.524 6.826 45.312zM810.496 10.752c-47.104 0-85.248 38.188-85.248 85.248s38.188 85.248 85.248 85.248 85.248-38.188 85.248-85.248-38.144-85.248-85.248-85.248z" />
<glyph unicode="&#xe610;" glyph-name="arrow-left" d="M767.872 437.334h-384v192l-277.076-277.334 277.076-277.334v192h386.004c46.080 0 83.328 38.144 83.328 85.332s-39.254 85.334-85.332 85.334z" />
<glyph unicode="&#xe611;" glyph-name="arrow-up" d="M597.332 53.334v384h192l-277.334 277.076-277.334-277.076h192v-386.006c0-46.080 38.144-83.328 85.332-83.328s85.332 39.254 85.332 85.332z" />
<glyph unicode="&#xe612;" glyph-name="arrow-down" d="M426.624 608v-384h-192l277.334-277.076 277.334 277.076h-192v386.004c0 46.080-38.144 83.328-85.332 83.328-47.232 0-85.332-39.252-85.332-85.332z" />
<glyph unicode="&#xe613;" glyph-name="arrow-right" d="M213.332 266.668h384v-192l277.076 277.334-277.076 277.334v-192h-386.004c-46.080 0-83.328-38.144-83.328-85.334s39.254-85.332 85.332-85.332z" />
<glyph unicode="&#xe614;" glyph-name="reload" d="M589.568 732.588c-191.404 0-349.654-133.036-373.676-320.556l-162.048 31.36 159.488-235.904 235.904 159.36-148.352 28.716c20.096 120.362 144.596 251.648 291.84 251.648 160.854 0 292.096-137.856 292.096-298.752s-160.428-291.754-288.428-291.754v-85.332c213.332 0 373.76 172.672 373.76 380.586s-172.672 380.63-380.586 380.63z" />
<glyph unicode="&#xe615;" glyph-name="download" d="M640 394.668v469.332h-213.332v-469.332h-168.662l271.488-271.532 271.488 271.532zM860.16 565.334h-134.826v-85.332h134.826c23.51 0 35.84-0.682 35.84-24.15v-320c0-35.328-21.932-82.516-57.174-82.516h-653.568c-35.242 0-57.174 47.188-57.174 82.518v320c0 23.466 12.33 24.148 35.84 24.148h134.828v85.334h-134.826c-70.57 0-121.174-38.912-121.174-109.484v-469.334c0-70.572 50.604-146.516 121.174-146.516h696.236c70.572 0 121.174 75.904 121.174 146.516v469.334c0 70.572-50.602 109.484-121.174 109.484zM896-13.482c0-23.51-12.332-61.184-35.84-61.184h-696.236c-23.51 0-35.84 37.674-35.84 61.184v64.556c0-13.524 33.068-40.364 57.174-40.364h653.568c24.064 0 57.174 26.836 57.174 40.364v-64.556z" />
<glyph unicode="&#xe616;" glyph-name="tag" d="M938.068 487.638l-120.96 376.020-390.656-120.746-341.164-630.486 503.38-272.084 340.308 628.948c0.256 0.428 0.512 0.896 0.726 1.28l9.044 16.726-0.682 0.34zM756.48 508.374c-30.804-57.088-102.1-78.336-159.232-47.488-57.13 30.932-78.336 102.186-47.446 159.188 30.848 57.132 102.23 78.336 159.274 47.488 57.088-30.848 78.336-102.144 47.404-159.188z" />
<glyph unicode="&#xe617;" glyph-name="trashcan" d="M640 693.334v128h-256v-128h-170.668v-85.332h597.332v85.332h-170.668zM555.434 693.334h-85.332v42.668h85.332v-42.668zM213.332 565.334v-640l85.332-85.332h426.666l85.332 85.332v640h-597.332zM341.334-74.666h-42.666v469.334h42.668v-469.334zM426.666-74.666h-42.666v469.334h42.668v-469.334zM512-74.666h-42.668v469.334h42.668v-469.334zM725.332-74.666h-170.668v469.334h170.668v-469.334zM725.332 437.334h-426.666v42.668h426.666v-42.668z" />
<glyph unicode="&#xe618;" glyph-name="search" d="M33.836-39.168l60.33-60.332 187.094 187.092-58.752 61.908-188.672-188.672zM602.668 821.334c-209.068 0-378.666-169.558-378.666-378.668 0-81.876 26.324-157.44 70.486-219.436l71.252-75.092c64.896-52.352 147.072-84.182 236.928-84.182 209.152 0 378.668 169.558 378.668 378.668s-169.514 378.708-378.666 378.708zM602.668 149.334c-161.75 0-293.334 131.584-293.334 293.334s131.584 293.334 293.334 293.334 293.332-131.584 293.332-293.334-131.584-293.334-293.334-293.334z" />
<glyph unicode="&#xe619;" glyph-name="zoom-in" d="M33.836-39.168l60.33-60.332 187.094 187.092-58.752 61.908-188.672-188.672zM602.668 821.334c-209.11 0-378.666-169.558-378.666-378.668 0-81.876 26.324-157.44 70.486-219.436l71.252-75.092c64.896-52.352 147.028-84.182 236.928-84.182 209.11 0 378.668 169.558 378.668 378.668s-169.558 378.708-378.666 378.708zM602.668 149.334c-161.75 0-293.334 131.584-293.334 293.334s131.584 293.334 293.334 293.334 293.332-131.584 293.332-293.334-131.584-293.334-293.334-293.334zM640.938 565.334h-85.332v-85.332h-85.332v-85.334h85.332v-85.334h85.332v85.334h85.332v85.334h-85.332v85.332z" />
<glyph unicode="&#xe61a;" glyph-name="zoom-out" d="M33.836-39.168l60.33-60.332 187.094 187.092-58.752 61.908-188.672-188.672zM602.668 821.334c-209.11 0-378.666-169.558-378.666-378.668 0-81.876 26.324-157.44 70.486-219.436l71.252-75.092c64.896-52.352 147.028-84.182 236.928-84.182 209.11 0 378.668 169.558 378.668 378.668s-169.558 378.708-378.666 378.708zM602.668 149.334c-161.75 0-293.334 131.584-293.334 293.334s131.584 293.334 293.334 293.334 293.332-131.584 293.332-293.334-131.584-293.334-293.334-293.334zM469.248 479.916h256v-85.334h-256z" />
<glyph unicode="&#xe61b;" glyph-name="chat" d="M853.332 821.334h-725.332c-70.57 0-128-57.43-128-128v-512c0-70.572 85.332-85.332 128-85.332v-256l384 256h341.334c70.572 0 128 57.428 128 128v469.334c0 70.572-57.428 128-128 128zM896 224c0-23.51-19.158-42.668-42.668-42.668h-384l-256-213.332v213.332h-85.332c-23.51 0-42.668 19.158-42.668 42.668v469.334c0 23.51 19.156 42.668 42.668 42.668h725.332c23.51 0 42.668-19.158 42.668-42.668v-469.334z" />
<glyph unicode="&#xe61c;" glyph-name="clock" d="M512 864c-282.752 0-512-229.248-512-512s229.248-512 512-512 512 229.248 512 512-229.248 512-512 512zM512-74.666c-235.264 0-426.666 191.404-426.666 426.668s191.402 426.668 426.666 426.668 426.666-191.404 426.666-426.668-191.404-426.666-426.666-426.666zM701.74 646.188c-21.076 10.496-46.72 1.962-57.26-19.072l-144.17-288.384-86.188 86.144c-16.682 16.684-43.648 16.684-60.332 0s-16.682-43.648 0-60.332l128-128c8.108-8.106 18.944-12.544 30.208-12.544 2.26 0 4.566 0.172 6.826 0.554 13.524 2.22 25.174 10.794 31.318 23.040l170.668 341.334c10.582 21.076 2.004 46.676-19.072 57.26zM469.418 53.42h85.332v-42.752h-85.332zM469.418 736h85.332v-42.752h-85.332zM128 394.752h85.332v-42.752h-85.332zM810.582 394.752h85.332v-42.752h-85.332z" />
<glyph unicode="&#xe61d;" glyph-name="printer" d="M938.668 480h-85.332v341.332h-682.668v-341.332h-85.332c-46.932 0-85.332-38.4-85.332-85.334v-426.668c0-46.932 28.8-85.332 64-85.332h106.668v-42.666h682.668v42.666h106.668c35.2 0 64 38.4 64 85.332v426.668c0 46.932-38.4 85.334-85.332 85.334zM170.668-74.666h-42.668v213.332h42.668v-213.332zM768-74.666h-512v213.332h85.332v-42.668h341.332v42.668h85.332v-213.332zM768 480h-512v256h512v-256zM896-74.666h-42.668v213.332h42.668v-213.332zM938.668 352h-85.332v42.668h85.332v-42.668zM341.334 10.668h341.334v42.668h-341.334v-42.668z" />
<glyph unicode="&#xe61e;" glyph-name="home" d="M896 537.558v283.776h-213.332v-126.42l-171.436 126.42-511.232-384h128v-554.668h768v554.668l128-0.084-128 100.31zM512-32h-170.668v341.334h170.668v-341.334zM810.668-32h-256v384h-256v-384h-85.332v512l299.050 213.332 298.284-213.332v-512zM810.668 645.036l-42.668 28.46v62.508h42.668v-90.966zM768 266.668h-170.668v-170.668h170.668v170.668zM725.332 138.668h-85.332v85.332h85.332v-85.332zM469.334 138.668h-42.666v-42.668h42.668v42.668z" />
<glyph unicode="&#xe61f;" glyph-name="flag" d="M810.582 778.752v-17.706c-42.624 12.63-75.476 19.668-114.688 19.668-76.5 0-152.748-23.85-224.512-46.892-68.48-21.932-134.272-42.752-197.334-42.752-47.744 0-86.74 12.46-126.634 38.058l-62.080 42.24v-656.044l15.488-12.586c54.016-34.73 109.654-51.668 174.25-51.668 76.46 0 149.632 23.85 221.356 46.932 68.48 22.016 136.832 42.752 199.98 42.752 40.020 0 71.596-9.344 114.26-27.264v-275.584h85.332v940.842h-85.418zM810.668 207.232c-42.668 12.672-75.562 18.816-114.73 18.816-76.5 0-152.746-23.85-224.512-46.848-68.522-22.016-130.176-42.836-193.238-42.836-40.022 0-64.854 8.746-107.52 26.668v461.568c42.668-12.628 67.328-18.816 106.496-18.816 76.416 0 148.564 23.85 220.332 46.89 68.48 22.016 136.32 42.796 199.424 42.796 39.98-0.044 71.082-8.788 113.75-26.668v-461.568z" />
<glyph unicode="&#xe620;" glyph-name="meter" d="M512 864c-282.752 0-512-229.248-512-512s229.248-512 512-512 512 229.248 512 512-229.248 512-512 512zM512-74.666c-235.264 0-426.666 191.404-426.666 426.668s191.402 426.668 426.666 426.668 426.666-191.404 426.666-426.668-191.404-426.666-426.666-426.666zM303.274 622.124c0 0-0.128-0.128-0.17-0.128 0-0.042 0-0.042 0-0.042-0.084-0.044-0.128-0.128-0.17-0.128-0.044-0.044-0.044-0.044-0.084-0.086-0.084-0.044-0.214-0.17-0.298-0.212-0.044-0.044-0.044-0.044-0.044-0.044-0.084-0.086-0.128-0.086-0.17-0.128l-0.084-0.044c-0.044-0.042-0.084-0.042-0.128-0.128-0.044 0-0.128-0.044-0.17-0.086 0 0-0.044-0.044-0.084-0.086-0.084-0.042-0.128-0.086-0.214-0.17 0 0-0.084-0.044-0.084-0.086-0.084 0-0.128-0.084-0.17-0.084 0 0-0.044-0.086-0.084-0.086l-0.128-0.128c-0.044-0.044-0.044-0.044-0.044-0.044-0.128-0.086-0.214-0.172-0.298-0.212v-0.044c-0.084-0.044-0.17-0.086-0.214-0.17 0 0-0.044 0-0.084 0-0.044-0.086-0.128-0.128-0.17-0.172 0 0-0.044-0.044-0.084-0.086-0.17-0.086-0.298-0.212-0.468-0.298-0.044-0.044-0.044-0.044-0.044-0.044-0.084-0.044-0.17-0.128-0.214-0.214v0c-0.298-0.212-0.556-0.426-0.81-0.596v-0.042c-4.564-3.712-9.088-7.468-13.484-11.392-0.256-0.212-0.512-0.428-0.726-0.64h-0.044c-0.084-0.084-0.128-0.17-0.214-0.256h-0.044c-0.17-0.128-0.298-0.256-0.468-0.428h-0.044c-0.044-0.084-0.128-0.17-0.17-0.214 0-0.042-0.044-0.042-0.044-0.042-0.084-0.086-0.128-0.128-0.214-0.172v-0.044c-0.084 0-0.17-0.084-0.256-0.17 0 0-0.044 0-0.044-0.044l-0.17-0.17c-0.044-0.044-0.044-0.044-0.044-0.044-0.084-0.086-0.17-0.128-0.17-0.128-0.084-0.086-0.084-0.086-0.084-0.086-0.084-0.086-0.17-0.128-0.256-0.212 0 0 0 0-0.044-0.044l-0.17-0.17c-0.044-0.044-0.044-0.044-0.044-0.044-0.084-0.086-0.128-0.128-0.214-0.172 0-0.042-0.044-0.042-0.044-0.042l-0.17-0.214c0 0-0.044-0.044-0.084-0.084s-0.084-0.086-0.17-0.128c0 0-0.084-0.084-0.084-0.128 0 0-0.084-0.042-0.128-0.084s-0.084-0.044-0.128-0.044c0 0-0.044-0.086-0.084-0.128-0.084-0.044-0.128-0.128-0.17-0.128-0.044-0.084-0.084-0.084-0.17-0.17 0 0-0.044-0.086-0.084-0.086l-0.084-0.086c-0.084-0.042-0.128-0.084-0.17-0.128 0-0.044-0.044-0.044-0.044-0.044l-0.468-0.512h-0.044c-0.044-0.084-0.084-0.128-0.17-0.17 0 0 0 0-0.044-0.044s-0.084-0.044-0.084-0.044l29.098-31.232c9.046 8.404 18.774 16.428 28.8 23.68l-25.002 34.56c-3.028-2.134-6.016-4.394-9.002-6.698zM228.48 446.252l-40.492 13.44c-2.56-7.724-4.82-15.488-6.826-23.424-0.086-0.384-0.17-0.726-0.256-1.024h-0.044c0-0.084-0.044-0.17-0.044-0.256l-0.256-0.98c-0.044-0.084-0.044-0.17-0.086-0.256 0 0 0 0 0-0.044-0.086-0.342-0.17-0.64-0.256-0.94v-0.084c0-0.084-0.044-0.17-0.044-0.17v-0.084c-0.086-0.256-0.128-0.512-0.212-0.768 0-0.084-0.044-0.17-0.044-0.256-0.044-0.084-0.044-0.17-0.086-0.256v-0.044c-0.044-0.214-0.128-0.468-0.17-0.726 0 0 0 0 0-0.044-0.044-0.084-0.044-0.128-0.044-0.214 0-0.044 0-0.084-0.044-0.084 0-0.084-0.044-0.17-0.044-0.214v-0.044c-0.044-0.256-0.128-0.468-0.17-0.726 0-0.044 0-0.044 0-0.044-0.044-0.084-0.044-0.17-0.086-0.256-0.086-0.342-0.128-0.682-0.212-0.98v-0.044c-0.044-0.084-0.044-0.128-0.086-0.214v-0.084c-0.086-0.342-0.128-0.682-0.212-0.94v-0.044c0-0.044 0-0.128-0.044-0.214-0.044-0.256-0.086-0.512-0.17-0.768 0-0.084-0.044-0.17-0.044-0.256 0 0 0-0.044 0-0.084-0.044-0.044-0.044-0.128-0.044-0.214l-0.044-0.044c-0.044-0.342-0.128-0.682-0.212-0.98s-0.128-0.682-0.212-1.024c-0.044-0.084-0.044-0.17-0.044-0.256-0.3-1.366-0.598-2.774-0.896-4.14l41.856-8.276c2.474 12.16 5.676 24.32 9.556 36.052zM512 650.668c3.414 0 6.784-0.086 10.154-0.172l1.408 42.668c-2.86 0.084-5.716 0.128-8.66 0.17h-0.044c-0.086 0-0.212 0-0.212 0h-0.852c0 0 0 0-0.044 0h-0.298c-0.044 0-0.044 0-0.044 0h-0.726c0 0-0.044 0-0.086 0h-0.172c0 0-0.044 0-0.086 0h-0.682c0 0-0.044 0-0.084 0h-0.342c0 0-0.128 0-0.214 0 0 0-0.044 0-0.084 0h-0.214c0 0-0.044 0-0.084 0h-0.298c-0.044 0-0.044 0-0.044 0h-2.304c0 0-0.044 0-0.084 0h-0.298c-0.128 0-0.214 0-0.342-0.044h-0.342c0 0-0.044 0-0.084 0h-0.214c-0.044 0-0.084 0-0.084 0h-0.256c-0.044 0-0.044 0-0.044 0-0.256 0-0.468-0.044-0.682-0.044-0.044 0-0.044 0-0.044 0h-0.298c-0.044 0-0.044 0-0.044 0h-1.322c0 0 0 0-0.044 0h-0.298c-0.342 0-0.682-0.044-0.98-0.044-0.128 0-0.256 0-0.342-0.044h-1.706c-9.472-0.342-18.858-1.024-28.16-2.092-0.298-0.086-0.64-0.086-0.94-0.172h-0.342c-0.084 0-0.17-0.042-0.17-0.042-0.084 0-0.128 0-0.17-0.044h-0.214c-0.044 0-0.044 0-0.044 0-0.128 0-0.256-0.042-0.342-0.042-0.044 0-0.084-0.044-0.128-0.044h-0.342l-0.128-0.042h-0.128l5.29-42.326c12.332 1.536 24.876 2.304 37.332 2.304zM186.24 249.814v-0.086c0.044-0.172 0.128-0.384 0.17-0.596 0.044-0.128 0.086-0.212 0.086-0.342h0.044c4.224-13.312 9.216-26.284 14.976-38.826l38.784 17.75c-5.164 11.308-9.644 22.996-13.312 34.816l-40.746-12.716zM839.466 448.684c-3.37 11.52-7.38 22.826-11.948 33.792v0.044c-0.044 0.084-0.044 0.128-0.044 0.128l-0.044 0.128c-0.086 0.214-0.212 0.428-0.298 0.682v0c-0.044 0.044-0.086 0.128-0.086 0.214l-0.044 0.044c-0.044 0.044-0.044 0.128-0.086 0.212 0 0 0 0.044-0.044 0.086-0.044 0.086-0.086 0.172-0.128 0.298 0 0.044-0.044 0.086-0.044 0.128 0 0-0.044 0.086-0.044 0.128-0.044 0.044-0.044 0.128-0.044 0.128-0.044 0.084-0.086 0.084-0.086 0.17-0.044 0.044-0.044 0.084-0.086 0.17l-0.172 0.342c0 0.042 0 0.084 0 0.084-0.044 0.084-0.086 0.17-0.128 0.214 0 0 0 0.042 0 0.128-0.044 0.044-0.086 0.086-0.086 0.172-0.044 0-0.044 0.084-0.044 0.084l-0.128 0.256v-0.044c-0.044 0.084-0.086 0.214-0.128 0.298l-0.044 0.044c0 0.044-0.044 0.128-0.086 0.212 0 0.086 0 0.086 0 0.086-0.086 0.086-0.086 0.172-0.128 0.256l-0.428 0.938c-0.086 0.256-0.172 0.428-0.256 0.64l-39.126-17.11c4.992-11.35 9.302-23.082 12.8-34.988l40.96 12.032zM804.010 288.854c-2.644-12.116-6.058-24.192-10.112-35.884l40.236-14.124c0.896 2.518 1.75 5.076 2.602 7.68l1.11 3.5c3.028 9.77 5.674 19.712 7.894 29.824l-41.728 9.004zM712.918 627.968c0 0 0 0.044 0 0-0.212 0.172-0.384 0.3-0.596 0.47h-0.086c-0.044 0.044-0.086 0.044-0.128 0.086s-0.086 0.044-0.086 0.044c-0.044 0.084-0.128 0.084-0.128 0.084-0.086 0.086-0.172 0.172-0.172 0.172-0.044 0.086-0.086 0.086-0.128 0.086-0.044 0.086-0.086 0.086-0.172 0.128 0 0.044-0.044 0.044-0.086 0.086s-0.128 0.044-0.172 0.128c0 0-0.044 0-0.086 0.044-0.086 0.042-0.172 0.128-0.256 0.17s-0.172 0.128-0.256 0.214h-0.044c-0.086 0.084-0.128 0.128-0.212 0.17l-0.044 0.044c-7.98 5.674-16.128 11.050-24.576 16l-21.716-36.692c10.624-6.316 21.034-13.356 30.848-20.992l26.154 33.748c-2.602 2.004-5.206 3.968-7.894 5.932-0.044 0-0.086 0.044-0.172 0.084zM433.238 512.086c0 0-63.318-253.654-44.672-321.836 18.604-68.224 89.002-108.332 157.226-89.684 68.224 18.602 108.374 89.004 89.728 157.226-18.688 68.182-202.284 254.294-202.284 254.294zM534.486 141.696c-45.396-12.458-92.332 14.336-104.748 59.776s14.25 92.374 59.776 104.832c45.44 12.416 92.374-14.336 104.788-59.818 12.458-45.398-14.294-92.332-59.818-104.788z" />
<glyph unicode="&#xe621;" glyph-name="switch" d="M490.666 266.668c35.2 0 64 38.4 64 85.332v341.334c0 46.932-28.8 85.332-64 85.332s-64-38.4-64-85.332v-341.334c0-46.932 28.8-85.332 64-85.332zM640 663.98v-93.61c101.332-53.716 170.668-159.916 170.668-282.368 0-176.47-143.532-320-320-320s-320 143.53-320 320c0 122.454 69.332 228.652 170.668 282.368v93.61c-149.676-59.562-256-205.312-256-375.98 0-223.488 181.846-405.334 405.334-405.334s405.334 181.846 405.334 405.334c0 170.668-106.326 316.416-256 375.98z" />
<glyph unicode="&#xe622;" glyph-name="forbidden" d="M490.666 736c-223.488 0-405.334-181.846-405.334-405.334s181.846-405.334 405.334-405.334 405.334 181.846 405.334 405.334-181.846 405.334-405.334 405.334zM170.668 330.668c0 176.47 143.53 320 320 320 65.11 0 125.696-19.668 176.298-53.204l-443.094-443.094c-33.536 50.602-53.204 111.188-53.204 176.298zM490.666 10.668c-65.108 0-125.696 19.668-176.3 53.206l443.094 443.094c33.536-50.602 53.206-111.19 53.206-176.3 0-176.468-143.532-320-320-320z" />
<glyph unicode="&#xe623;" glyph-name="phone-landscape" d="M85.332 650.668h341.334v-85.332h85.332v85.332c0 46.932-38.4 85.334-85.332 85.334h-341.334c-46.932 0-85.332-38.4-85.332-85.334v-597.332c0-46.932 32.47-85.332 79.36-85.332h48.64v170.668h-42.668v512zM896 480h-597.332c-46.932 0-85.332-38.4-85.332-85.334v-341.334c0-46.932 38.4-85.332 85.332-85.332h597.332c46.932 0 85.332 38.4 85.332 85.332v341.334c0 46.932-38.4 85.332-85.332 85.332zM341.334 181.334h-85.334v85.332h85.332v-85.332zM896 53.334h-512v341.334h512v-341.334z" />
<glyph unicode="&#xe624;" glyph-name="tablet" d="M810.668 821.334h-597.332c-46.932 0-85.332-38.4-85.332-85.332v-768c0-46.932 38.4-85.332 85.332-85.332h597.332c46.932 0 85.332 38.4 85.332 85.332v768c0 46.932-38.4 85.332-85.332 85.332zM554.668-74.666h-85.332v85.332h85.332v-85.332zM810.668 53.334h-597.332v682.668h597.332v-682.668z" />
<glyph unicode="&#xe625;" glyph-name="tablet-landscape" d="M981.332 53.334v597.334c0 46.932-38.4 85.332-85.332 85.332h-768c-46.932 0-85.332-38.4-85.332-85.332v-597.334c0-46.932 38.4-85.332 85.332-85.332h768c46.932 0 85.332 38.4 85.332 85.332zM85.332 309.334v85.334h85.332v-85.334h-85.332zM213.332 53.334v597.334h682.668v-597.334h-682.668z" />
<glyph unicode="&#xe626;" glyph-name="laptop" d="M128 608h768v-426.668h85.332v512h-938.668v-512h85.332v426.668zM682.668 138.668c-8.192-17.152-48.852-30.932-85.332-37.802v-4.864h-170.668v4.864c-36.48 6.87-77.142 20.65-85.332 37.802h-341.334v-42.668c0-46.932 128-85.332 128-85.332h768c0 0 128 38.4 128 85.332v42.668h-341.334zM853.332 53.334h-42.668v42.668h42.668v-42.668z" />
<glyph unicode="&#xe627;" glyph-name="camera" d="M533.292 480c-106.026 0-191.956-85.974-191.956-192s85.93-192 191.956-192c105.984 0 191.956 85.972 191.956 192s-85.972 192-191.956 192zM458.964 416.726c21.93 12.758 47.146 20.608 74.368 20.608 76.416 0 138.924-57.94 147.584-132.14-73.812 56.832-161.068 91.904-221.952 111.532zM960 650.668h-206.25l-28.416 85.334h-426.666l-28.416-85.334h-163.584c-47.104 0-106.668-38.23-106.668-85.332v-512c0-47.104 59.564-85.332 106.668-85.332h853.334c47.104 0 64 38.23 64 85.332v512c0 47.104-16.896 85.332-64 85.332zM533.332 10.668c-153.174 0-277.334 124.16-277.334 277.332s124.16 277.334 277.334 277.334 277.332-124.16 277.332-277.334-124.16-277.334-277.334-277.334zM938.668 480h-85.332v85.332h85.332v-85.332z" />
<glyph unicode="&#xe628;" glyph-name="microwave-oven" d="M896 736h-768c-70.57 0-128-57.43-128-128v-469.334c0-70.572 57.43-128 128-128h42.668l42.668-85.332h42.666l42.668 85.332h426.668l42.668-85.332h42.668l42.668 85.332h42.668c70.572 0 128 57.428 128 128v469.334c0 70.572-57.428 128-128 128zM938.668 138.668c0-23.552-19.158-42.668-42.668-42.668h-768c-23.51 0-42.668 19.116-42.668 42.668v469.334c0 23.51 19.156 42.666 42.668 42.666h768c23.51 0 42.668-19.156 42.668-42.666v-469.334zM128 138.668h640v469.334h-640v-469.334zM170.668 565.334h554.668v-384h-554.668v384zM810.668 565.334h42.668v-42.668h-42.668zM853.332 522.668h42.668v-42.666h-42.668zM810.668 480h42.668v-42.668h-42.668zM853.332 437.334h42.668v-42.666h-42.668zM810.668 309.334h85.332v-42.668h-85.332zM810.668 224h85.332v-42.668h-85.332z" />
<glyph unicode="&#xe629;" glyph-name="credit-cards" d="M938.668 565.334h-85.332v25.174c0 46.976-38.23 102.826-85.332 102.826h-682.668c-47.104 0-85.332-55.85-85.332-102.826v-384c0-47.104 38.228-67.84 85.332-67.84h42.668v-102.826c0-47.104 38.23-67.84 85.332-67.84h725.332c47.104 0 85.332 20.736 85.332 67.84v426.668c0 46.976-38.23 102.826-85.332 102.826zM128 224h-42.668v170.668h42.668v-170.668zM139.86 522.668h-54.528v85.334h682.668v-42.668h-554.668c-31.402 0-58.668-42.666-73.472-42.666zM213.332 53.334v426.668h725.332l0.086-426.668h-725.418zM682.668 181.334h213.332v170.668h-213.332v-170.668zM725.332 309.334h128v-85.332h-128v85.332zM341.334 96h170.666v42.668h-170.668v-42.668zM256 352h298.666v85.334h-298.666v-85.334zM554.752 96h42.496v42.668h-42.496v-42.668zM256 96h42.496v42.668h-42.496v-42.668z" />
<glyph unicode="&#xe62a;" glyph-name="map-marker" d="M511.956 864c-214.486 0-388.394-173.908-388.394-388.438 0-214.572 305.068-635.562 388.438-635.562 61.654 0 388.48 420.992 388.48 635.562-0.044 214.528-173.952 388.438-388.524 388.438zM510.208 284.416c-109.012 0-197.334 88.32-197.334 197.334s88.32 197.332 197.332 197.332 197.332-88.32 197.332-197.332-88.32-197.334-197.332-197.334z" />
<glyph unicode="&#xe62b;" glyph-name="map" d="M657.836 839.212l-307.242-170.24-350.592 195.028v-780.928l359.85-195.072 290.090 171.008 331.392-182.528v779.562l-323.5 183.168zM896 342.016l-213.332 109.312v267.86l213.332-114.26v-262.912zM384 595.030l213.332 121.898v-267.606l-213.332-121.9v267.606zM384 278.23l213.332 121.942v-267.692l-213.332-121.812v267.562zM298.666 595.030v-266.028l-213.332 128.3v259.668l213.332-121.942zM85.332 407.468l213.332-128.3v-268.5l-213.332 121.812v274.988zM682.668 133.334v270.038l213.332-109.312v-274.988l-213.332 114.26z" />
<glyph unicode="&#xe62c;" glyph-name="support" d="M874.068 713.984c-92.672 92.672-220.672 150.016-362.070 150.016-141.312 0-269.312-57.344-361.984-150.016s-150.016-220.672-150.016-361.984c0-141.396 57.344-269.396 150.016-362.068 92.672-92.586 220.672-149.93 361.984-149.93 141.396 0 269.396 57.344 362.070 149.93 92.586 92.672 149.932 220.672 149.932 362.070 0 141.312-57.344 269.312-149.932 361.984zM682.668 352c0-47.104-19.158-89.77-50.004-120.662-30.89-30.848-73.558-50.004-120.662-50.004-47.020 0-89.686 19.158-120.576 50.004-30.932 30.89-50.092 73.558-50.092 120.662 0 47.020 19.156 89.686 50.092 120.576s73.558 50.090 120.576 50.090c47.104 0 89.77-19.156 120.662-50.090 30.848-30.892 50.004-73.558 50.004-120.576zM85.332 352c0 117.59 47.83 224.256 125.1 301.568l120.576-120.576c-46.336-46.336-75.008-110.336-75.008-180.992s28.672-134.656 75.008-180.992l-120.576-120.576c-77.27 77.226-125.1 183.894-125.1 301.568zM813.568 50.432l-120.576 120.576c46.336 46.336 75.008 110.336 75.008 180.992s-28.672 134.656-75.008 180.992l120.576 120.576c77.27-77.312 125.1-183.978 125.1-301.568 0-117.674-47.828-224.342-125.1-301.568z" />
<glyph unicode="&#xe62d;" glyph-name="newspaper2" d="M341.334 821.334v-170.668h-298.666v-640h261.846l71.894-170.666h469.332l92.928 85.332v896h-597.332zM128 96v352l140.586-352h-140.586zM320 138.668l-170.668 426.668h170.668v-426.668zM853.332-32l-50.304-42.668h-376.362v810.668h426.666v-768zM469.334 650.668h213.334v-42.666h-213.332zM469.334 394.668h213.334v-42.668h-213.332zM469.334 309.334h213.334v-42.668h-213.332zM469.334 224h213.334v-42.668h-213.332zM469.334 138.668h213.334v-42.668h-213.332zM469.334 53.334h213.334v-42.668h-213.332zM725.418 650.71h85.248v-42.752h-85.248zM725.418 565.334h42.624v-42.752h-42.624zM639.914 565.334h42.624v-42.752h-42.624zM597.418 565.334h-128.086v-42.752h128.086zM768.044 394.668h42.496v-42.752h-42.496zM768.044 309.376h42.496v-42.752h-42.496zM768.044 224h42.496v-42.752h-42.496zM768.044 138.71h42.496v-42.752h-42.496z" />
<glyph unicode="&#xe62e;" glyph-name="barbell" d="M928.726 480c-23.466 0-32.726-38.4-32.726-85.334v-85.334c0-46.932 9.26-85.332 32.726-85.332s32.726 38.4 32.726 85.332h62.548v85.334h-62.592c0 46.932-9.26 85.334-32.682 85.334zM768 608c-42.668 0-42.668-38.4-42.668-85.334v-128h-426.666v128c0 46.932 0 85.334-42.668 85.334-46.932 0-85.332-38.4-85.332-85.334v-341.332c0-46.932 38.4-85.332 85.332-85.332 42.668 0 42.668 38.4 42.668 85.332v128h426.666v-128c0-46.932 0-85.332 42.668-85.332 46.932 0 85.332 38.4 85.332 85.332v341.334c0 46.932-38.4 85.332-85.332 85.332zM95.276 480c23.466 0 32.724-38.4 32.724-85.334v-85.334c0-46.932-9.26-85.332-32.724-85.332s-32.726 38.4-32.726 85.332h-62.548v85.334h62.592c0 46.932 9.26 85.334 32.684 85.334z" />
<glyph unicode="&#xe62f;" glyph-name="stopwatch" d="M554.668 691.2v44.8h21.332c11.776 0 21.332 9.556 21.332 21.332v85.334c0 11.776-9.558 21.332-21.332 21.332h-128c-11.776 0-21.332-9.558-21.332-21.332v-85.334c0-11.776 9.558-21.332 21.332-21.332h21.332v-44.972c-38.442-3.926-75.392-12.972-110.208-26.412l-44.672 43.136-77.952 77.908-150.1-150.1 96.896-96.896c-61.184-73.812-97.962-168.576-97.962-272 0-235.648 191.018-426.666 426.668-426.666s426.666 191.018 426.666 426.666c0 221.27-168.364 403.116-384 424.534zM469.334 821.334h85.334v-42.668h-85.332v42.668zM146.73 635.564l89.772 89.772 49.792-49.75-89.772-89.77-49.792 49.748zM512-74.666c-188.202 0-341.334 153.13-341.334 341.332s153.132 341.334 341.334 341.334 341.334-153.13 341.334-341.334-153.13-341.334-341.334-341.334zM478.166 460.416c-16.682 16.682-43.648 16.682-60.332 0s-16.682-43.648 0-60.332l83.796-83.84-112.128-156.672c-11.562-20.524-4.31-46.548 16.256-58.068 6.612-3.754 13.782-5.504 20.864-5.504 14.932 0 29.396 7.85 37.204 21.76l128 184.918c9.428 16.682 6.528 37.548-6.996 51.072l-106.668 106.668z" />
<glyph unicode="&#xe630;" glyph-name="atom" d="M512 480.044c-70.656 0-128-57.344-128-128s57.344-128 128-128 128 57.344 128 128-57.344 128-128 128zM905.856 464.428c-13.866 4.48-26.368 11.606-37.076 21.036-17.236-31.744-38.486-64.3-61.398-96.94-35.626 45.782-76.288 91.988-121.644 137.344-45.014 45.012-91.392 85.846-137.644 121.77 109.952 77.484 215.638 124.118 290.86 124.118 30.548 0 53.932-7.894 69.462-23.424 16.896-16.896 24.364-43.434 23.040-77.056 2.432 0.17 4.692 0.768 7.168 0.768 12.288 0 23.98-2.516 34.944-6.314 2.644 47.83-8.704 86.486-34.986 112.812-23.85 23.85-57.344 35.924-99.626 35.924-87.168 0-205.312-52.010-326.912-139.818-121.6 87.808-239.744 139.86-326.912 139.86-9.044 0-17.536-0.852-25.772-1.964 11.648-11.264 20.438-25.172 26.026-40.746 75.222-0.084 180.82-46.72 290.688-124.16-46.336-36.010-92.758-76.844-137.728-121.856-44.8-44.844-85.632-91.308-121.856-137.984-36.48 51.668-66.56 102.912-88.106 151.596-14.764 33.236-24.618 63.744-30.38 91.308-4.224-0.556-8.32-1.324-12.672-1.324-11.008 0-21.418 2.176-31.402 5.248 5.716-33.962 17.28-71.596 35.456-112.556 24.192-54.656 58.24-112.298 100.052-170.154-41.77-57.77-75.734-115.414-99.968-170.026-51.584-116.352-52.948-207.404-3.882-256.47 23.85-23.85 57.344-35.924 99.626-35.924 128.854 0 325.376 113.322 500.694 288.726 44.928 44.972 85.802 91.562 121.984 138.368 118.188-166.998 152.064-309.334 100.48-360.916-15.53-15.53-38.912-23.424-69.462-23.424-40.236 0-89.388 13.568-143.104 37.846-5.674-13.654-14.080-25.77-24.534-35.924 62.208-28.8 119.636-44.586 167.636-44.586 42.284 0 75.776 12.076 99.626 35.924 74.154 74.154 27.35 244.524-104.49 427.136 27.092 37.588 51.84 75.136 71.808 111.788zM185.216-67.84c-30.55 0-53.93 7.894-69.46 23.424-35.2 35.2-30.592 111.36 12.714 208.98 21.546 48.64 51.584 99.798 87.98 151.466 36.224-46.634 77.012-93.1 121.772-137.812 45.27-45.27 91.904-85.376 138.496-121.428-110.208-77.824-216.192-124.63-291.5-124.63zM655.744 208.384c-46.678-46.678-95.232-88.832-143.532-125.524-48.428 36.778-97.024 78.804-143.83 125.524-46.678 46.678-88.704 95.104-125.568 143.53 36.864 48.512 79.020 96.982 125.696 143.702 46.634 46.676 95.232 88.832 143.572 125.61 48.298-36.736 96.852-78.89 143.488-125.524 48.47-48.47 90.198-96.64 125.952-143.36-36.864-48.64-78.976-97.152-125.78-143.956zM938.668 608.044c-23.596 0-42.668-19.072-42.668-42.666s19.072-42.668 42.668-42.668 42.668 19.072 42.668 42.668-19.072 42.666-42.668 42.666zM597.332 53.376c-23.596 0-42.668-19.072-42.668-42.668s19.072-42.668 42.668-42.668 42.668 19.072 42.668 42.668-19.072 42.668-42.668 42.668zM85.332 693.376c23.594 0 42.668 19.072 42.668 42.666s-19.072 42.668-42.668 42.668-42.668-19.072-42.668-42.668 19.072-42.666 42.668-42.666z" />
<glyph unicode="&#xe631;" glyph-name="image" d="M0 736v-768h1024v768h-1024zM938.668 53.334h-853.332v597.334h853.332v-597.334zM618.668 333.056c47.062 0 85.332 38.23 85.332 85.334s-38.272 85.334-85.332 85.334-85.332-38.23-85.332-85.334 38.272-85.334 85.332-85.334zM576 461.056h85.332v-85.334h-85.332v85.332zM896 608h-768v-512h768v512zM170.668 310.828l258.092-73.728-258.092-45.568v119.296zM853.332 138.668h-682.668v9.6l682.668 120.448v-130.048zM853.332 311.382l-341.334-63.658-341.334 105.772v211.84h682.668v-253.952z" />
<glyph unicode="&#xe632;" glyph-name="cube" d="M516.736 842.668l-474.070-232.618v-470.784l469.334-277.93 469.334 277.93v470.784l-464.596 232.62zM469.334-14.25l-341.334 202.154v284.8l341.334-168.662v-318.294zM147.796 560.812l369.664 186.282 369.664-186.282-369.664-182.656-369.664 182.656zM896 187.904l-384-227.414v329.472l384 182.742v-284.8z" />
<glyph unicode="&#xe633;" glyph-name="bars" d="M981.332-74.666v42.668h-42.668v-42.668h-42.668v426.668h-213.332v-426.666h-42.668v853.332h-213.332v-853.332h-42.668v512h-42.668v42.666h-42.668v-42.666h-85.332v42.666h-42.668v-554.668h-85.332v938.668h-85.332v-1024h1024v85.332h-42.668zM298.666-74.666h-42.668v426.668h42.668v-426.666zM554.668-74.666h-42.668v768h42.668v-768zM810.668-74.666h-42.668v341.332h42.668v-341.334zM170.668 864h42.668v-42.666h-42.668zM298.666 864h42.666v-42.666h-42.668zM426.666 864h42.666v-42.666h-42.668zM554.668 864h42.668v-42.666h-42.668zM682.668 864h42.668v-42.666h-42.668zM810.668 864h42.668v-42.666h-42.668zM938.668 864h42.668v-42.666h-42.668zM938.668 736h42.668v-42.668h-42.668zM810.668 736h42.668v-42.668h-42.668zM682.668 736h42.668v-42.668h-42.668zM682.668 608h42.668v-42.668h-42.668zM810.668 608h42.668v-42.668h-42.668zM938.668 608h42.668v-42.668h-42.668zM938.668 479.916h42.668v-42.666h-42.668zM810.668 480h42.668v-42.668h-42.668zM682.668 480h42.668v-42.668h-42.668zM938.668 352h42.668v-42.668h-42.668zM938.668 224h42.668v-42.668h-42.668zM938.668 96h42.668v-42.668h-42.668zM298.666 736h42.666v-42.668h-42.668zM298.666 608h42.666v-42.668h-42.668zM170.668 608h42.668v-42.668h-42.668zM170.668 736h42.668v-42.668h-42.668z" />
<glyph unicode="&#xe634;" glyph-name="chart" d="M167.082 708.396c-97.664-70.23-161.58-184.534-161.58-313.728 0-47.232 8.916-92.288 24.49-134.188l362.070 134.188-224.98 313.728zM66.9 405.42c-1.536 80.044 28.886 157.098 84.096 214.486l179.072-198.784-253.908-84.694c-5.716 22.442-8.832 45.568-9.26 68.992zM567.98 800c-107.86 0-212.052-38.868-293.462-109.482l1.068-1.196-17.024-14.89 271.956-311.936-395.69-125.696 5.802-18.22-0.426-0.128c1.194-3.968 2.772-7.722 4.14-11.562l3.414-10.794 0.384 0.128c64.896-175.658 230.57-292.268 419.84-292.268 247.040 0 448 201.002 448 448s-200.96 448.044-448 448.044zM900.438 496.47l-269.996-98.858 176.256 226.772c39.894-35.072 72.236-78.548 93.74-127.914zM346.324 638.678c63.36 48.94 141.142 75.99 221.652 75.99 76.116 0 146.73-23.68 205.14-63.914l-206.080-265.174-220.716 253.098zM230.314 222.336l310.4 98.644-57.3-320.64c-115.072 27.308-209.834 108.928-253.098 221.996zM567.98-10.666c-14.464 0-28.458 1.75-42.538 3.414l61.356 343.424 328.364 120.236c9.942-33.11 15.446-68.14 15.446-104.406 0.044-200.020-162.688-362.666-362.624-362.666z" />
<glyph unicode="&#xe635;" glyph-name="pencil" d="M550.826 838.23l-375.424-670.080 1.92-0.98 18.986-301.398 275.072 136.62 1.75-0.98 375.424 670.038-297.728 166.784zM258.346-27.732l-2.604 150.998 136.492-76.5-133.888-74.496zM440.404 117.504l-148.822 83.414 229.418 409.472 148.908-83.37-229.504-409.516zM541.824 647.638l41.77 74.452 148.822-83.414-41.684-74.41-148.908 83.37z" />
<glyph unicode="&#xe636;" glyph-name="measure" d="M128 266.668h42.668v42.668h-42.668v-42.668zM170.668 693.334h-42.668v-42.666h42.668v42.666zM170.668-74.666h-42.668v-42.668h-85.332v-42.666h213.332v42.666h-85.332v42.668zM128 522.668h42.668v42.666h-42.668v-42.666zM128 394.668h42.668v42.666h-42.668v-42.666zM384 864v-1024h554.668v1024h-554.668zM725.332-74.666h-256v853.332h256v-853.332zM853.332-74.666h-85.332v85.332h85.332v-85.332zM853.332 53.334h-85.332v85.332h85.332v-85.332zM853.332 181.334h-85.332v85.332h85.332v-85.332zM853.332 309.334h-85.332v85.334h85.332v-85.334zM853.332 437.334h-85.332v85.332h85.332v-85.332zM853.332 565.334h-85.332v85.332h85.332v-85.332zM853.332 693.334h-85.332v85.334h85.332v-85.334zM42.668 821.334h85.332v-42.668h42.668v42.668h85.332v42.666h-213.332v-42.666zM128 10.668h42.668v42.668h-42.668v-42.668zM128 138.668h42.668v42.668h-42.668v-42.668z" />
<glyph unicode="&#xe637;" glyph-name="eyedropper" d="M640 674.39v85.334c0 47.104-63.658 104.276-110.848 104.276h-34.22c-47.146 0-110.848-57.174-110.848-104.276v-85.334c-42.666 0-85.334-38.4-85.334-85.332v-42.668c0-31.318 0-58.58 42.668-73.428v-462.294h42.668v-170.666h255.914v170.666h42.668v462.294c42.668 14.848 42.668 42.068 42.668 73.428v42.668c0 46.89-42.668 85.332-85.332 85.332zM554.668-74.666h-85.248v128h85.248v-128zM597.332 96h-170.582v256h170.582v-256zM597.332 394.668h-170.582v85.334h170.582v-85.334z" />
<glyph unicode="&#xe638;" glyph-name="file-settings" d="M298.666 565.334v-85.332h256v85.332h-256zM298.666 394.668h384v42.666h-384v-42.666zM682.668 352h-128v-42.668h128v42.668zM554.668 224h128v42.668h-128v-42.668zM128 778.668v-426.668h85.332v341.334h554.668v-725.334h-213.332v-85.332h298.668v896h-725.332zM414.166 117.334c0 10.24-1.536 20.052-3.754 29.568l59.222 39.722-38.016 65.11-59.904-40.020c-11.050 9.728-23.764 17.152-37.716 21.972v75.648h-71.638v-75.99c-13.61-4.822-25.942-12.202-36.778-21.76l-59.734 40.15-37.972-65.11 59.22-39.68c-2.218-9.514-3.754-19.37-3.754-29.61 0-10.284 1.536-20.14 3.754-29.654l-59.094-39.638 38.016-65.11 59.564 40.15c10.794-9.558 23.168-16.896 36.778-21.76v-75.99h71.638v75.606c13.952 4.778 26.668 12.202 37.716 21.932l59.734-39.98 38.1 65.11-59.136 39.68c2.176 9.558 3.754 19.37 3.754 29.654zM298.752 40.492c-39.51 0-71.638 34.432-71.638 76.842s32.128 76.8 71.638 76.8c39.594 0 71.638-34.39 71.638-76.8s-32.044-76.842-71.638-76.842z" />
<glyph unicode="&#xe639;" glyph-name="file-add" d="M341.334 565.334v-85.332h256v85.332h-256zM341.334 394.668h384v42.666h-384v-42.666zM725.332 352h-341.334v-42.668h341.334v42.668zM725.332 224v42.668h-298.666v-42.668h298.666zM341.334 266.668h-128v-128h-128v-128h128v-128h128v128h128v128h-128v128zM170.668 778.668v-426.668h85.332v341.334h554.668v-725.334h-283.436l-42.668-85.332h411.436v896h-725.332z" />
<glyph unicode="&#xe63a;" glyph-name="file" d="M298.666 565.334h256v-85.332h-256zM298.666 437.334h384v-42.666h-384zM298.666 352h384v-42.668h-384zM298.666 266.668h384v-42.668h-384zM298.666 181.334h128v-42.668h-128zM701.014 778.668h-573.014v-896h725.332v745.174l-152.32 150.826zM768 592.512v-27.178h-128v128h25.684l102.316-100.822zM213.332-32v725.332h384v-170.666h170.668v-554.668h-554.668z" />
<glyph unicode="&#xe63b;" glyph-name="align-left" d="M128 778.668v-896h725.332v896h-725.332zM768-32h-554.668v725.332h554.668v-725.332zM554.668 565.334h-256v-85.332h256v85.332zM682.668 437.334h-384v-42.666h384v42.668zM682.668 352h-384v-42.668h384v42.668zM682.668 266.668h-384v-42.668h384v42.668zM426.666 181.334h-128v-42.668h128v42.668z" />
<glyph unicode="&#xe63c;" glyph-name="align-right" d="M128 778.668v-896h725.332v896h-725.332zM768-32h-554.668v725.332h554.668v-725.332zM682.668 565.334h-256v-85.332h256v85.332zM682.668 437.334h-384v-42.666h384v42.668zM682.668 352h-384v-42.668h384v42.668zM682.668 266.668h-384v-42.668h384v42.668zM554.668 138.668h128v42.668h-128v-42.668z" />
<glyph unicode="&#xe63d;" glyph-name="align-center" d="M128 778.668v-896h725.332v896h-725.332zM768-32h-554.668v725.332h554.668v-725.332zM597.332 565.334h-256v-85.332h256v85.332zM682.668 437.334h-384v-42.666h384v42.668zM682.668 352h-384v-42.668h384v42.668zM682.668 266.668h-384v-42.668h384v42.668zM426.666 138.668h128v42.668h-128v-42.668z" />
<glyph unicode="&#xe63e;" glyph-name="align-justify" d="M128 778.668v-896h725.332v896h-725.332zM768-32h-554.668v725.332h554.668v-725.332zM682.668 565.334h-384v-85.332h384v85.332zM682.668 437.334h-384v-42.666h384v42.668zM682.668 352h-384v-42.668h384v42.668zM682.668 266.668h-384v-42.668h384v42.668zM682.668 181.334h-384v-42.668h384v42.668z" />
<glyph unicode="&#xe63f;" glyph-name="file-broken" d="M128 778.668v-896h725.332v896h-725.332zM768-32h-554.668v725.332h554.668v-725.332zM385.068 186.070l105.6 105.6 105.6-105.6 60.332 60.332-105.6 105.6 105.6 105.6-60.332 60.332-105.6-105.6-105.6 105.6-60.332-60.332 105.6-105.6-105.6-105.6 60.332-60.332z" />
<glyph unicode="&#xe640;" glyph-name="browser" d="M0 821.334v-938.668h1024v938.668h-1024zM938.668-32h-853.332v554.668h853.332v-554.668zM938.668 565.334h-853.332v170.668h853.332v-170.668zM469.334 693.334h-85.334v-85.332h85.332v85.332zM341.334 693.334h-85.334v-85.332h85.332v85.332zM213.332 693.334h-85.332v-85.332h85.332v85.332z" />
<glyph unicode="&#xe641;" glyph-name="windows" d="M128 821.334v-128h-128v-810.668h896v128h128v810.668h-896zM810.668-32h-725.332v640h42.668v-597.334h682.668v-42.668zM938.668 96h-725.332v426.668h725.332v-426.668zM938.668 565.334h-725.332v170.668h725.332v-170.668zM597.332 693.334h-85.332v-85.332h85.332v85.332zM469.334 693.334h-85.334v-85.332h85.332v85.332zM341.334 693.334h-85.334v-85.332h85.332v85.332z" />
<glyph unicode="&#xe642;" glyph-name="window" d="M0 821.334v-938.668h1024v938.668h-1024zM938.668-32h-853.332v554.668h853.332v-554.668zM938.668 565.334h-853.332v170.668h853.332v-170.668zM469.334 693.334h-85.334v-85.332h85.332v85.332zM341.334 693.334h-85.334v-85.332h85.332v85.332zM213.332 693.334h-85.332v-85.332h85.332v85.332zM385.068 100.736l105.6 105.6 105.6-105.6 60.332 60.332-105.6 105.6 105.6 105.6-60.332 60.332-105.6-105.6-105.6 105.6-60.332-60.332 105.6-105.6-105.6-105.6 60.332-60.332z" />
<glyph unicode="&#xe643;" glyph-name="folder" d="M597.332 693.334v42.668c0 47.104-38.23 85.332-85.332 85.332h-170.668c-47.104 0-85.332-38.23-85.332-85.332v-42.668h-170.668v-128h-42.668v-682.668h938.668v810.668h-384zM896-32h-768v512h768v-512zM896 565.334h-725.332v42.668h170.668v128h170.668v-128h384v-42.668z" />
<glyph unicode="&#xe644;" glyph-name="connection-25" d="M597.332 778.668v-170.666h-170.668v-170.668h-170.668v-170.668h-170.668v-341.334h810.668v853.332h-298.666zM469.334 10.668h-128v341.334h128v-341.334zM640 10.668h-128v512h128v-512zM810.668 10.668h-128v682.668h128v-682.668z" />
<glyph unicode="&#xe645;" glyph-name="connection-50" d="M597.332 778.668v-170.666h-170.668v-170.668h-170.668v-170.668h-170.668v-341.334h810.668v853.332h-298.666zM640 10.668h-128v512h128v-512zM810.668 10.668h-128v682.668h128v-682.668z" />
<glyph unicode="&#xe646;" glyph-name="connection-75" d="M597.332 778.668v-170.666h-170.668v-170.668h-170.668v-170.668h-170.668v-341.334h810.668v853.332h-298.666zM810.668 10.668h-128v682.668h128v-682.668z" />
<glyph unicode="&#xe647;" glyph-name="connection-full" d="M597.332 778.668v-170.666h-170.668v-170.668h-170.668v-170.668h-170.668v-341.334h810.668v853.332h-298.666z" />
<glyph unicode="&#xe648;" glyph-name="list" d="M384.17 736v-810.668h511.532v341.332h127.828v469.334h-639.36zM810.41 10.668h-340.992v128h340.992v-128zM810.41 181.334h-340.992v128h340.992v-128zM938.284 352h-468.864v128h468.864v-128zM938.284 522.668h-468.864v128h468.864v-128zM0.468-74.666h298.452v810.668h-298.452v-810.668zM85.716 650.668h127.916v-128h-127.916v128zM85.716 480h127.916v-128h-127.916v128zM85.716 309.334h127.916v-128h-127.916v128zM85.716 138.668h127.916v-128h-127.916v128z" />
<glyph unicode="&#xe649;" glyph-name="grid" d="M42.668 778.668v-896h895.148v896h-895.148zM852.566 480h-213.164v213.332h213.164v-213.332zM852.566 224h-213.164v213.334h213.164v-213.334zM852.566-32h-213.164v213.332h213.164v-213.332zM127.916 181.334h213.164v-213.332h-213.164v213.332zM127.916 437.334h213.164v-213.334h-213.164v213.334zM127.916 693.334h213.164v-213.332h-213.164v213.332zM596.822 480h-213.12v213.332h213.164v-213.332zM596.822 224h-213.12v213.334h213.164v-213.334zM383.702 181.334h213.164v-213.332h-213.164v213.332z" />
<glyph unicode="&#xe64a;" glyph-name="stack3" d="M895.658 596.096v97.236h-767.318v-97.236l-127.872-42.668v-402.816l127.872-42.668v-97.28h767.318v97.236l127.872 42.668v402.86l-127.872 42.668zM128.342 197.888l-42.624 14.208v279.808l42.624 14.208v-308.224zM810.41 96h-596.822v512h596.822v-512zM938.284 212.096l-42.624-14.208v308.224l42.624-14.208v-279.808zM767.788 565.334h-511.572v-426.668h511.572v426.668zM725.164 181.334h-426.324v341.334h426.324v-341.334z" />
<glyph unicode="&#xe64b;" glyph-name="battery-charging" d="M887.98 522.668c-17.578 49.664-64.98 85.334-120.576 85.334h-639.488c-70.528 0-127.916-57.43-127.916-128v-298.668c0-70.572 57.388-128 127.916-128h639.446c55.596 0 102.996 35.668 120.576 85.332h92.544v384h-92.5zM809.942 181.334c0-23.51-19.072-42.668-42.582-42.668h-639.446c-23.552 0-42.668 19.158-42.668 42.668v298.668c0 23.51 19.114 42.668 42.668 42.668h639.446c23.51 0 42.582-19.158 42.582-42.668v-298.668zM895.232 224h-42.624v213.334h42.624v-213.334zM430.806 224l42.582 85.332h213.162l-255.744 128-42.668-85.334h-213.164l255.83-128z" />
<glyph unicode="&#xe64c;" glyph-name="battery-empty" d="M888.32 522.668c-17.578 49.664-64.98 85.334-120.576 85.334h-639.446c-70.528 0-127.872-57.43-127.872-128v-298.668c0-70.572 57.344-128 127.872-128h639.446c55.596 0 102.996 35.668 120.576 85.332h92.586v384h-92.586zM810.41 181.334c0-23.51-19.158-42.668-42.668-42.668h-639.446c-23.552 0-42.624 19.158-42.624 42.668v298.668c0 23.51 19.072 42.668 42.624 42.668h639.446c23.51 0 42.668-19.158 42.668-42.668v-298.668zM895.658 224h-42.668v213.334h42.668v-213.334z" />
<glyph unicode="&#xe64d;" glyph-name="battery-25" d="M888.32 522.668c-17.578 49.664-64.98 85.334-120.576 85.334h-639.446c-70.528 0-127.872-57.43-127.872-128v-298.668c0-70.572 57.344-128 127.872-128h639.446c55.596 0 102.996 35.668 120.576 85.332h92.586v384h-92.586zM810.41 181.334c0-23.51-19.158-42.668-42.668-42.668h-639.446c-23.552 0-42.624 19.158-42.624 42.668v298.668c0 23.51 19.072 42.668 42.624 42.668h639.446c23.51 0 42.668-19.158 42.668-42.668v-298.668zM895.658 224h-42.668v213.334h42.668v-213.334zM128.3 394.668v-128c0-46.932 28.758-85.332 63.956-85.332h63.914v298.668h-63.914c-35.2 0-63.956-38.4-63.956-85.334z" />
<glyph unicode="&#xe64e;" glyph-name="battery-50" d="M888.32 522.668c-17.578 49.664-64.98 85.334-120.576 85.334h-639.446c-70.528 0-127.872-57.43-127.872-128v-298.668c0-70.572 57.344-128 127.872-128h639.446c55.596 0 102.996 35.668 120.576 85.332h92.586v384h-92.586zM810.41 181.334c0-23.51-19.158-42.668-42.668-42.668h-639.446c-23.552 0-42.624 19.158-42.624 42.668v298.668c0 23.51 19.072 42.668 42.624 42.668h639.446c23.51 0 42.668-19.158 42.668-42.668v-298.668zM895.658 224h-42.668v213.334h42.668v-213.334zM298.796 480h127.916v-298.668h-127.916zM128.3 394.668v-128c0-46.932 28.758-85.332 63.956-85.332h63.914v298.668h-63.914c-35.2 0-63.956-38.4-63.956-85.334z" />
<glyph unicode="&#xe64f;" glyph-name="battery-75" d="M888.32 522.668c-17.578 49.664-64.98 85.334-120.576 85.334h-639.446c-70.528 0-127.872-57.43-127.872-128v-298.668c0-70.572 57.344-128 127.872-128h639.446c55.596 0 102.996 35.668 120.576 85.332h92.586v384h-92.586zM810.41 181.334c0-23.51-19.158-42.668-42.668-42.668h-639.446c-23.552 0-42.624 19.158-42.624 42.668v298.668c0 23.51 19.072 42.668 42.624 42.668h639.446c23.51 0 42.668-19.158 42.668-42.668v-298.668zM895.658 224h-42.668v213.334h42.668v-213.334zM298.796 480h127.916v-298.668h-127.916zM469.334 480h127.916v-298.668h-127.916zM128.3 394.668v-128c0-46.932 28.758-85.332 63.956-85.332h63.914v298.668h-63.914c-35.2 0-63.956-38.4-63.956-85.334z" />
<glyph unicode="&#xe650;" glyph-name="refresh" d="M234.026 382.508c19.072 114.048 136.96 238.42 276.438 238.42 80.684 0 152.748-37.034 203.18-94.122l67.84 45.226c-66.26 78.72-164.564 129.75-274.004 129.75-181.332 0-331.264-125.996-354.004-303.66l-153.472 29.654 151.082-223.446 223.488 150.998-140.544 27.178zM872.918 499.67l-223.488-150.996 140.5-27.178c-19.028-114.048-136.96-238.464-276.438-238.42-80.726 0-152.748 37.034-203.222 94.124l-67.796-45.226c66.26-78.72 164.566-129.75 274.004-129.75 181.29 0 331.264 125.996 353.962 303.658l153.558-29.654-151.082 223.446z" />
<glyph unicode="&#xe651;" glyph-name="volume" d="M544.768 821.334l-170.668-213.332h-170.668c-70.612 0-118.1-68.096-118.1-138.668v-245.332c0-70.572 47.488-128 118.1-128h170.668l170.668-213.332c42.668 0 95.232 0 95.232 0v938.668c-42.668 0-52.566 0-95.232 0zM341.334 181.334h-137.9c-23.594 0-32.768 19.158-32.768 42.668v245.332c0 23.51 9.174 53.334 32.768 53.334h137.9v-341.334zM554.668 10.668l-170.668 170.668v341.334l170.668 170.668v-682.668zM725.332 565.334v-88.876c85.332-17.706 85.332-64.64 85.332-120.108 0-55.596 0-102.486-85.332-120.15v-88.876c128 19.84 170.668 105.984 170.668 209.024 0 102.998-42.668 189.142-170.668 208.98z" />
<glyph unicode="&#xe652;" glyph-name="volume-increase" d="M502.1 821.334l-170.668-213.332h-170.668c-70.612 0-118.1-68.096-118.1-138.668v-245.332c0-70.572 47.488-128 118.1-128h170.668l170.668-213.332c42.668 0 95.232 0 95.232 0v938.668c-42.668 0-52.564 0-95.232 0zM298.666 181.334h-137.9c-23.594 0-32.768 19.158-32.768 42.668v245.332c0 23.51 9.174 53.334 32.768 53.334h137.9v-341.334zM512 10.668l-170.668 170.668v341.334l170.668 170.668v-682.668zM981.332 394.668h-85.332v85.334h-85.332v-85.334h-85.332v-85.334h85.332v-85.332h85.332v85.332h85.332z" />
<glyph unicode="&#xe653;" glyph-name="volume-decrease" d="M502.1 821.334l-170.668-213.332h-170.668c-70.612 0-118.1-68.096-118.1-138.668v-245.332c0-70.572 47.488-128 118.1-128h170.668l170.668-213.332c42.668 0 95.232 0 95.232 0v938.668c-42.668 0-52.564 0-95.232 0zM298.666 181.334h-137.9c-23.594 0-32.768 19.158-32.768 42.668v245.332c0 23.51 9.174 53.334 32.768 53.334h137.9v-341.334zM512 10.668l-170.668 170.668v341.334l170.668 170.668v-682.668zM725.332 394.668h256v-85.334h-256z" />
<glyph unicode="&#xe654;" glyph-name="mute" d="M597.332 299.008v-288.342l-144.17 144.17-58.836-58.836h22.4l170.666-213.332c42.668 0 95.232 0 95.232 0v501.676l-85.292-85.334zM214.058 217.388c-0.17 2.22-0.724 4.268-0.724 6.614v245.332c0 23.51 9.174 53.334 32.768 53.334h137.898v-135.34l42.668 42.666v92.672l170.668 170.666v-92.672l85.332 85.334v135.338c-42.668 0-52.564 0-95.232 0l-170.668-213.332h-170.668c-70.612 0-118.1-68.096-118.1-138.668v-245.332c0-27.136 7.126-52.182 19.754-72.918l66.304 66.304zM145.664-62.164l-60.332 60.332 789.332 789.332 60.332-60.332-789.332-789.332z" />
<glyph unicode="&#xe655;" glyph-name="microphone" d="M597.332 821.334h-213.332c-70.656 0-128-57.302-128-128v-384c0-70.698 57.344-128 128-128h213.332c70.656 0 128 57.302 128 128v384c0 70.7-57.344 128-128 128zM640 608v-42.668h-85.332v-42.666h85.332v-42.668h-85.332v-42.666h85.332v-42.668h-85.332v-42.668h85.332v-42.668c0-23.51 3.072-42.668-20.438-42.668h-257.792c-23.51 0-20.438 19.158-20.438 42.668v42.668h85.334v42.668h-85.332v42.668h85.332v42.666h-85.332v42.668h85.332v42.666h-85.332v42.668h85.332v42.666h-85.332v42.668c0 23.51-3.072 42.668 20.438 42.668h257.75c23.552 0 20.48-19.158 20.48-42.668v-42.668h-85.332v-42.666h85.332zM810.668 352v85.334h-42.668v-213.334c0-47.828-31.104-85.332-99.2-85.332h-356.266c-68.096 0-99.2 37.504-99.2 85.332v213.334h-42.668v-85.334h-42.668v-85.332h42.668v-42.668c0-95.702 25.942-128 141.866-128h71.466v-128h-85.334v-85.332h384v85.332h-85.332v128h71.466c115.924 0 141.866 32.298 141.866 128v42.668h42.668v85.332h-42.668z" />
<glyph unicode="&#xe656;" glyph-name="microphone-off" d="M170.668 234.326l42.668 42.668v160.342h-42.668v-85.334h-42.668v-85.332h42.668v-32.342zM810.668 352v85.334h-42.668v-213.334c0-47.828-82.944-85.332-151.040-85.332h-209.58l-85.334-42.668h61.952v-128h-85.332v-85.332h384v85.332h-85.332v128h19.626c115.924 0 193.706 32.298 193.706 128v42.668h42.668v85.332h-42.668zM554.668 608v42.666h-42.668v-42.666h42.668zM341.334 437.334h85.334v42.668h-85.332v42.666h85.332v42.668h-85.332v42.666h85.332v42.668h-85.332v42.668c0 23.51-10.496 42.666 13.056 42.666h213.334c20.48 0 36.822-14.804 40.918-34.090l64.172 64.17c-23.126 33.322-61.568 55.254-105.088 55.254h-213.332c-70.612 0-98.39-57.43-98.39-128v-373.676l85.332 85.334v32.342zM567.722 266.668h-75.008l-85.334-85.332h160.342c70.572 0 157.61 57.428 157.61 128v160.342l-85.332-85.332v-75.008c0-23.51-48.768-42.668-72.278-42.668zM749.056 719.104l-597.332-597.332 42.668-85.332 597.332 597.332-42.668 85.334z" />
<glyph unicode="&#xe657;" glyph-name="book" d="M379.436 823.98l-183.936-135.68-24.832 5.034v-725.332l554.668-128v725.332l-418.048 97.878 90.452 70.144 412.928-82.688v-341.334h42.668v419.584l-473.9 95.062z" />
<glyph unicode="&#xe658;" glyph-name="checkmark" d="M383.146-117.332l-243.628 426.41 148.182 84.652 97.664-170.836 352.044 598.442 147.072-86.486-501.334-852.182z" />
<glyph unicode="&#xe659;" glyph-name="checkbox-checked" d="M170.668 608l411.818-0.596 50.26 85.332-547.414 0.598v-426.668l85.332 85.332v256zM170.668 10.668c-1.664 2.9 0.98 102.528 0.98 128.256-45.184 66.816-86.314 127.744-86.314 127.744v-341.332l244.82-0.596c0 0-24.918 36.908-57.26 84.736-33.366 0.044-85.248 1.196-102.228 1.196zM810.668 10.668l-253.484-0.596-50.262-85.332 389.078 0.596v597.332l-85.332-85.332v-426.668zM768.596 800l-352-598.4-97.664 170.836-148.182-84.65 243.67-426.452 501.248 852.182-147.072 86.484z" />
<glyph unicode="&#xe65a;" glyph-name="checkbox" d="M85.332 693.334v-768h810.668v768h-810.668zM810.668 10.668h-640v597.334h640v-597.334zM725.248 352h-469.248v-128h469.248v128z" />
<glyph unicode="&#xe65b;" glyph-name="paperclip" d="M903.212 663.168l-120.662 120.662c-83.2 83.156-218.538 83.156-301.696 0l-422.4-422.358 60.332-60.332 422.4 422.358c49.92 49.92 131.116 49.92 180.992 0l120.704-120.704c49.92-49.876 49.92-131.072 0-180.992l-422.358-422.358c-54.4-54.4-114.902-66.092-131.116-49.92l-19.754 19.712-96.17 96.172c-7.51 7.51-1.366 47.744 20.736 69.846l422.272 422.272c4.948 4.908 45.312-15.104 75.434-45.27v0c-13.184-13.184-10.112-10.154-15.062-15.104l-306.432-306.39 60.332-60.332 306.432 306.39c36.48 36.438 81.836 69.036 15.104 135.766v0c-66.688 66.73-133.846 107.52-196.096 45.27l-422.4-422.272c-49.836-49.92-69.248-141.908-20.65-190.508l65.92-66.004 50.004-49.92c56.576-56.576 167.168-34.644 251.734 49.92l422.358 422.358c83.2 83.2 83.2 218.538 0.044 301.738z" />
<glyph unicode="&#xe65c;" glyph-name="chat-1" d="M277.334 480c35.328 0 64-28.63 64-64s-28.672-64-64-64-64 28.63-64 64 28.672 64 64 64zM853.332 821.334h-725.332c-70.57 0-128-57.43-128-128v-512c0-70.572 85.332-85.332 128-85.332v-256l384 256h341.334c70.572 0 128 57.428 128 128v469.334c0 70.572-57.428 128-128 128zM896 224c0-23.51-19.158-42.668-42.668-42.668h-384l-256-213.332v213.332h-85.332c-23.51 0-42.668 19.158-42.668 42.668v469.334c0 23.51 19.156 42.668 42.668 42.668h725.332c23.51 0 42.668-19.158 42.668-42.668v-469.334z" />
<glyph unicode="&#xe65d;" glyph-name="chat-2" d="M277.334 480c35.328 0 64-28.63 64-64s-28.672-64-64-64-64 28.63-64 64 28.672 64 64 64zM490.666 480c35.328 0 64-28.63 64-64s-28.672-64-64-64-64 28.63-64 64 28.672 64 64 64zM853.332 821.334h-725.332c-70.57 0-128-57.43-128-128v-512c0-70.572 85.332-85.332 128-85.332v-256l384 256h341.334c70.572 0 128 57.428 128 128v469.334c0 70.572-57.428 128-128 128zM896 224c0-23.51-19.158-42.668-42.668-42.668h-384l-256-213.332v213.332h-85.332c-23.51 0-42.668 19.158-42.668 42.668v469.334c0 23.51 19.156 42.668 42.668 42.668h725.332c23.51 0 42.668-19.158 42.668-42.668v-469.334z" />
<glyph unicode="&#xe65e;" glyph-name="chat-3" d="M277.334 480c35.328 0 64-28.63 64-64s-28.672-64-64-64-64 28.63-64 64 28.672 64 64 64zM490.666 480c35.328 0 64-28.63 64-64s-28.672-64-64-64-64 28.63-64 64 28.672 64 64 64zM704 480c35.328 0 64-28.63 64-64s-28.672-64-64-64-64 28.63-64 64 28.672 64 64 64zM853.332 821.334h-725.332c-70.57 0-128-57.43-128-128v-512c0-70.572 85.332-85.332 128-85.332v-256l384 256h341.334c70.572 0 128 57.428 128 128v469.334c0 70.572-57.428 128-128 128zM896 224c0-23.51-19.158-42.668-42.668-42.668h-384l-256-213.332v213.332h-85.332c-23.51 0-42.668 19.158-42.668 42.668v469.334c0 23.51 19.156 42.668 42.668 42.668h725.332c23.51 0 42.668-19.158 42.668-42.668v-469.334z" />
<glyph unicode="&#xe65f;" glyph-name="comment" d="M853.332 821.334h-725.332c-70.57 0-128-57.43-128-128v-512c0-70.572 85.332-85.332 128-85.332v-256l384 256h341.334c70.572 0 128 57.428 128 128v469.334c0 70.572-57.428 128-128 128zM896 224c0-23.51-19.158-42.668-42.668-42.668h-384l-256-213.332v213.332h-85.332c-23.51 0-42.668 19.158-42.668 42.668v469.334c0 23.51 19.156 42.668 42.668 42.668h725.332c23.51 0 42.668-19.158 42.668-42.668v-469.334zM170.668 608h512v-85.334h-512zM170.668 480h640v-42.668h-640zM170.668 394.668h640v-42.668h-640zM170.668 309.334h341.332v-42.668h-341.334z" />
<glyph unicode="&#xe660;" glyph-name="calendar" d="M853.332 693.334v170.668h-256v-170.668h-170.668v170.668h-256v-170.668h-170.668v-810.668h1024v810.668h-170.668zM682.668 778.668h85.332v-170.666h-85.332v170.666zM256 778.668h85.332v-170.666h-85.332v170.666zM938.668-32h-853.332v469.334h853.332v-469.334zM938.668 480h-853.332v128h85.332v-85.334h256v85.334h170.668v-85.334h256v85.334h85.332v-128zM213.376 309.376h85.248v-85.332h-85.248zM341.376 309.376h85.248v-85.332h-85.248zM469.248 309.376h85.248v-85.332h-85.248zM597.248 309.376h85.248v-85.332h-85.248zM725.376 309.376h85.248v-85.332h-85.248zM213.376 181.42h85.248v-85.332h-85.248zM341.376 181.42h85.248v-85.332h-85.248zM469.248 181.42h85.248v-85.332h-85.248z" />
<glyph unicode="&#xe661;" glyph-name="bookmark" d="M128 864v-989.014l349.098 203.264 376.236-219.092v1004.842h-725.332zM213.332 23.424v755.244h256v-613.332l-27.178-13.312-228.82-128.596zM768 7.596l-237.312 144.428-18.688 12.416v614.23h256v-771.072z" />
<glyph unicode="&#xe662;" glyph-name="email2" d="M459.988 254.976l-33.322-329.642 203.52 251.434 194.73-87.894 199.082 689.792-564.010-523.692zM1024 778.668l-1024-420.908 241.748-48.428 184.918-384-133.334 384 730.668 469.334z" />
<glyph unicode="&#xe663;" glyph-name="heart" d="M512 25.43l-1.492-1.836-339.84 435.072c-15.488 19.54-42.668 43.136-42.668 96.768 0 94.122 76.588 170.666 170.668 170.666 94.122 0 213.332-76.544 213.332-170.666v141.354c-45.868 69.034-124.372 114.644-213.332 114.644-141.184 0-256-114.816-256-256 0-87.724 42.668-128 53.674-156.544l415.658-504.406v130.944zM512 25.43l1.494-1.836 339.84 435.072c15.488 19.54 42.668 43.136 42.668 96.768 0 94.122-76.586 170.666-170.668 170.666s-213.332-76.544-213.332-170.666v141.354c45.908 69.034 124.416 114.644 213.332 114.644 141.184 0 256-114.816 256-256 0-87.724-42.668-128-53.674-156.544l-415.658-504.406v130.944z" />
<glyph unicode="&#xe664;" glyph-name="enter" d="M520.49 370.518l-179.158 179.158v-112.342h-298.666v-128h298.666v-118.016l179.158 179.2zM384 821.334v-143.658l85.332-85.334v143.66h345.13l-259.798-85.334v-512h-85.332v9.984l-85.332-85.332v-9.984h170.668v-170.668l384 128v810.668z" />
<glyph unicode="&#xe665;" glyph-name="cloud" d="M816.044-32c122.198 0 202.924 134.87 202.924 272 0 117.846-97.28 222.336-214.784 237.996l-19.5 52.012c-47.318 125.1-162.644 205.996-293.846 205.996-175.020 0-317.356-143.53-317.356-320 0-7.724 0.384-15.274 1.068-22.612-95.276-11.050-169.514-92.332-169.514-190.72 0-91.35 70.954-221.568 171.008-234.668h640zM595.84 318.892v0c37.888 54.528 114.134 60.076 148.182 76.63l0.298-0.854h29.524c83.626 0 159.744-64 159.744-144.982 0-78.592-52.096-196.352-136.236-196.352h-616.404c-46.89 0-90.582 101.248-90.582 159.020 0.044 65.836 58.284 113.62 127.062 99.668l66.176-15.788-16.256 64.298c-4.266 16.982-8.534 36.438-8.534 56.064 0 129.408 104.064 234.368 232.020 234.368 96.852 0 178.816-57.9 214.016-150.87-86.314-51.028-112.812-172.16-112.812-172.16" />
<glyph unicode="&#xe666;" glyph-name="book2" d="M424.362 464.512c-72.236 55.85-160.214 115.028-298.666 126.25l298.666-126.25zM424.362 336.512c-72.236 55.852-160.214 115.030-298.666 126.252l298.666-126.252zM296.32 290.092c-47.574 22.316-103.082 39.212-170.624 44.672l170.624-44.672zM556.972 464.512l298.666 126.25c-138.452-11.222-226.432-70.442-298.666-126.25zM556.972 336.512l298.666 126.252c-138.452-11.222-226.432-70.444-298.666-126.252zM855.636 334.764c-67.54-5.462-123.052-22.316-170.624-44.672l170.624 44.672zM940.972 848.512c-186.88 0-357.932-87.254-444.372-156.332h-11.82c-86.486 69.076-257.536 156.332-444.416 156.332h-40.362v-810.668h40.362c138.068 0 291.116-53.164 359.168-104.49 20.224-15.318 38.7-31.318 54.954-47.616l34.176-31.36h4.012l34.176 31.36c16.256 16.298 34.73 32.298 54.956 47.616 68.052 51.328 221.098 104.49 359.168 104.49h40.362v810.668h-40.364zM469.334-11.562c0 4.352-10.412 8.746-16.044 13.014-71.382 53.802-239.956 110.764-367.956 120.32v639.658c170.666-13.056 309.888-95.956 370.39-156.244l11.562-12.672h2.048v-604.076zM896 121.772c-128-9.558-296.576-66.518-367.956-120.32-5.632-4.268-16.044-8.704-16.044-13.014v604.076h2.092l11.562 12.672c60.46 60.288 199.68 143.19 370.346 156.246v-639.658z" />
<glyph unicode="&#xe667;" glyph-name="star" d="M783.53-139.648c-16.172-0.086-33.152 4.566-50.518 13.74l-165.376 86.912c-27.648 14.592-83.628 14.592-111.36 0l-165.29-86.912c-41.388-21.76-82.816-16.596-106.412 11.35-11.392 13.482-23.51 38.016-16.64 77.996l31.574 184.15c5.546 32.428-10.88 82.9-34.432 105.9l-133.844 130.39c-28.032 27.436-38.612 59.988-29.056 89.428 9.6 29.398 37.332 49.536 76.16 55.168l184.832 26.88c32.596 4.736 75.562 35.926 90.070 65.408l82.73 167.594c17.366 35.158 45.056 55.296 76.032 55.296s58.666-20.182 75.988-55.34l82.73-167.596c14.548-29.482 57.514-60.672 90.068-65.408l184.832-26.88c38.826-5.632 66.602-25.77 76.16-55.168s-1.024-61.996-29.14-89.43l-133.846-130.39c-23.552-22.996-39.98-73.514-34.432-105.9l31.572-184.15c6.87-40.020-5.248-64.512-16.64-77.908-13.524-16.212-33.408-25.13-55.764-25.13zM512 57.814c35.414 0 69.29-7.596 95.36-21.332l164.394-86.4-31.36 183.082c-10.368 60.5 14.976 138.496 58.924 181.418l133.034 129.58-183.764 26.752c-60.842 8.832-127.188 57.002-154.326 112.084l-82.26 166.528-82.26-166.528c-27.136-55.082-93.484-103.254-154.324-112.084l-183.764-26.752 133.034-129.58c43.948-42.924 69.29-120.918 58.924-181.418l-31.36-183.082 164.352 86.4c26.112 13.78 59.988 21.332 95.404 21.332z" />
<glyph unicode="&#xe668;" glyph-name="lock" d="M810.668 480v128c0 85.332-85.332 213.332-298.668 213.332s-298.666-128-298.666-213.332v-128h-85.332v-469.334c0-70.572 57.43-128 128-128h512c70.572 0 128 57.428 128 128v469.334h-85.332zM298.666 650.668c0 0 42.666 85.334 213.334 85.334s213.332-85.334 213.332-85.334v-170.666h-426.666v170.666zM810.668 10.668c0-23.51-19.116-42.668-42.668-42.668h-512c-23.552 0-42.668 19.158-42.668 42.668v384h597.332v-384zM469.334 150.486v-97.152h85.334v97.152c25.428 14.804 42.668 41.984 42.668 73.514 0 47.104-38.23 85.332-85.332 85.332s-85.332-38.23-85.332-85.332c0-31.488 17.238-58.71 42.668-73.514z" />
<glyph unicode="&#xe669;" glyph-name="unlocked" d="M810.668 864c-170.668 0-213.332-128-213.332-213.332v-213.332h-597.332v-469.334c0-70.572 57.43-128 128-128h512c70.572 0 128 57.428 128 128v469.334h-85.332v256c0 0 0 85.332 128 85.332s128-85.332 128-85.332v-170.668h85.334v128c0 85.334-42.668 213.334-213.332 213.334zM682.668-32c0-23.51-19.116-42.668-42.668-42.668h-512c-23.552 0-42.668 19.158-42.668 42.668v384h597.332v-384zM341.334 107.82v-97.152h85.334v97.152c25.428 14.804 42.668 41.984 42.668 73.514 0 47.104-38.228 85.332-85.332 85.332s-85.332-38.23-85.332-85.332c0-31.488 17.238-58.708 42.668-73.514z" />
<glyph unicode="&#xe66a;" glyph-name="unlocked2" d="M469.334 107.82v-97.152h85.334v97.152c25.428 14.804 42.668 41.984 42.668 73.514 0 47.104-38.23 85.332-85.332 85.332s-85.332-38.23-85.332-85.332c0-31.488 17.238-58.708 42.668-73.514zM810.668 437.334v170.668c0 85.332-85.332 213.332-298.668 213.332s-298.666-128-298.666-213.332v-298.668h85.334v341.334c0 0 42.668 85.332 213.332 85.332s213.332-85.332 213.332-85.332v-213.334h-341.334v-85.334h426.666v-384c0-23.51-19.116-42.668-42.668-42.668h-512c-23.552 0-42.668 19.158-42.668 42.668v256h-85.332v-256c0-70.572 57.43-128 128-128h512c70.572 0 128 57.428 128 128v469.334h-85.332z" />
<glyph unicode="&#xe66b;" glyph-name="users" d="M640 251.18c0 0-263.764 0-362.666-230.826 0 0 165.164-65.92 362.666-65.92s362.666 65.92 362.666 65.92c-98.9 230.826-362.666 230.826-362.666 230.826zM640 284.076c98.9 0 164.822 98.902 164.822 263.808s-164.822 164.864-164.822 164.864-164.822 0-164.822-164.864 65.92-263.808 164.822-263.808zM320 396.588c32.512 0 60.416 13.484 82.56 37.76-8.192 33.152-12.714 71.040-12.714 113.536 0 63.36 24.362 102.228 54.356 126.208-32.682 75.308-124.202 75.478-124.202 75.478s-135.764 0-135.764-135.766c0-135.764 54.314-217.216 135.764-217.216zM448 290.176l-4.608 53.674c-66.474 25.428-123.392 25.6-123.392 25.6s-217.216 0-298.666-190.080c0 0 105.004-41.856 240.854-52.052 118.314 123.86 185.812 162.86 185.812 162.86z" />
<glyph unicode="&#xe66c;" glyph-name="user" d="M512 224c0 0-341.334 0-469.334-298.666 0 0 213.76-85.332 469.334-85.332s469.334 85.332 469.334 85.332c-128 298.666-469.334 298.666-469.334 298.666zM512 266.668c128 0 213.332 128 213.332 341.334s-213.332 213.332-213.332 213.332-213.332 0-213.332-213.332 85.332-341.334 213.332-341.334z" />
<glyph unicode="&#xe66d;" glyph-name="users2" d="M1006.422 12.374c-62.25 143.318-206.548 226.56-311.296 262.144 64.172 52.438 102.058 151.34 102.058 280.876 0 172.16-143.914 217.684-220.032 217.684-12.246 0-26.326-1.366-41.174-4.052-40.876 36.736-94.932 52.308-137.942 52.308-79.532 0-197.844-52.14-197.844-195.712 0-114.26 33.366-201.77 89.984-248.874-89.088-23.296-210.432-80.812-272.596-223.958l-17.58-40.49 41.088-16.212c3.668-1.452 54.186-20.822 130.644-37.932-8.748-14.848-16.98-29.824-23.936-45.78l-17.622-40.49 41.088-16.212c7.594-2.944 187.776-73.004 405.846-73.004s398.25 70.058 405.846 73.004l41.044 16.212-17.578 40.49zM711.85 555.35c0-146.39-51.626-237.312-134.698-237.312s-134.7 90.924-134.7 237.312c0 124.586 112.426 132.096 134.486 132.352 22.486-0.256 134.912-7.766 134.912-132.352zM398.036 736c4.31 0 21.376-0.726 40.876-7.040-45.654-32.852-81.792-87.296-81.792-173.61 0-46.89 5.076-89.684 14.42-127.828-62.806 20.010-86.016 111.572-86.016 198.1 0 103.724 93.952 110.166 112.512 110.38zM398.036 307.372c0.512 0 12.372-0.256 30.976-2.644 18.604-22.956 40.49-40.704 65.152-52.864-67.156-13.44-162.816-45.524-240.384-122.24-55.894 9.004-103.766 21.076-135.894 30.72 91.606 144.212 271.956 146.986 280.15 147.028zM577.11-32c-139.776 0-280.192 32-344.362 51.798 10.112 29.312 42.070 68.052 53.164 81.366 119.168 115.414 289.452 117.846 291.072 117.846 0.342 0 31.104-0.47 74.88-9.216 76.032-19.2 194.134-89.388 254.89-189.908-64.128-19.798-189.654-51.884-329.644-51.884z" />
<glyph unicode="&#xe66e;" glyph-name="user2" d="M1010.176 11.094c-71.552 171.008-209.664 250.582-316.716 287.532 47.788 65.58 73.942 161.792 74.966 279.466 1.75 198.656-162.048 252.63-248.876 253.356-86.87 0.768-251.562-50.346-253.356-249.002-1.024-117.632 23.466-214.23 70.058-280.704-107.648-34.986-247.252-112.298-321.706-281.942l-17.62-40.020 40.49-16.64c8.832-3.542 218.71-88.32 473.686-90.538 255.020-2.26 466.348 78.804 475.264 82.218l40.748 15.872-16.938 40.404zM518.528 746.112c17.024-0.34 165.972-7.594 164.566-167.296-1.11-127.83-35.884-225.024-95.232-266.71l-73.428-51.54-72.362 52.778c-58.666 42.752-91.69 140.544-90.538 268.374 1.408 159.744 150.486 164.352 166.998 164.394zM511.872-42.112c-172.628 1.494-326.314 44.672-398.548 68.564 78.080 136.748 210.39 190.164 311.978 210.644l89.13 17.962 88.788-19.456c101.248-22.316 232.62-78.038 308.352-216.064-72.49-22.698-226.56-63.188-399.702-61.654z" />
<glyph unicode="&#xe66f;" glyph-name="bullhorn" d="M330.24 138.668l523.092-170.668v768l-523.092-170.668h-159.574c-70.57 0-128-57.428-128-128v-170.668c0-70.572 57.43-128 128-128h18.218c-0.044-1.068-0.128-2.004-0.128-3.072-0.044-27.264 2.772-64.596 15.616-102.826 6.912-18.9 15.532-38.188 27.348-55.168 5.888-8.49 11.562-16.896 18.56-23.85 6.7-7.168 12.844-14.422 19.84-19.584 13.312-11.562 25.686-19.754 34.816-24.404 9.13-5.076 14.294-8.064 14.294-8.064l1.58-0.896c8.022-4.438 17.024-7.424 26.752-8.49 39.252-4.438 74.624 23.85 79.020 63.104s-23.894 74.582-63.104 79.104c0 0-2.476 0.172-6.7 0.682-4.652 0-10.836 0.98-18.218 3.244-4.14 0.596-7.68 2.816-12.074 4.48-4.564 1.494-8.704 4.48-13.396 7.424-9.428 5.76-18.604 14.592-27.69 24.576-16.084 18.9-28.714 43.178-37.034 63.744h81.876zM725.332 619.904l42.668 14.25v-564.352l-42.668 12.928v537.174zM384 505.686l298.666 99.924v-510.036l-298.666 102.74v307.37zM170.668 224c-23.552 0-42.668 19.158-42.668 42.668v170.668c0 23.51 19.116 42.666 42.668 42.666h170.668v-256h-170.668zM896 480h42.668v-256h-42.668z" />
<glyph unicode="&#xe670;" glyph-name="share" d="M853.332 181.334c-51.2 0-96.682-23.126-128-58.966l-312.49 156.246c8.49 22.956 13.824 47.488 13.824 73.388s-5.334 50.432-13.824 73.388l312.49 156.246c31.318-35.84 76.8-58.966 128-58.966 94.124 0 170.668 76.586 170.668 170.668s-76.544 170.668-170.668 170.668-170.668-76.586-170.668-170.668c0-12.246 1.408-24.15 3.884-35.668l-318.72-159.36c0.128-0.128 0.17-0.298 0.298-0.384-38.912 41.26-93.696 67.414-154.794 67.414-117.632 0-213.332-95.7-213.332-213.334s95.7-213.332 213.332-213.332c61.1 0 115.884 26.154 154.794 67.414-0.128-0.086-0.17-0.256-0.298-0.384l318.72-159.36c-2.476-11.52-3.884-23.424-3.884-35.668 0-94.080 76.544-170.666 170.668-170.666s170.668 76.586 170.668 170.666-76.544 170.668-170.668 170.668zM853.332 778.668c47.062 0 85.332-38.23 85.332-85.332s-38.272-85.332-85.332-85.332-85.332 38.23-85.332 85.332 38.272 85.332 85.332 85.332zM213.332 224c-70.57 0-128 57.428-128 128s57.43 128 128 128 128-57.43 128-128-57.428-128-128-128zM853.332-74.666c-47.062 0-85.332 38.23-85.332 85.332s38.272 85.332 85.332 85.332 85.332-38.23 85.332-85.332-38.272-85.332-85.332-85.332z" />
<glyph unicode="&#xe671;" glyph-name="screen" d="M0 778.668v-597.332h416l-74.668-128h341.332l-74.668 128h416v597.332h-1024zM938.668 266.668h-853.332v426.668h853.332v-426.668zM725.332 10.668h-426.666c-23.466 0-42.668-19.2-42.668-42.668s19.2-42.668 42.668-42.668h426.666c23.466 0 42.668 19.2 42.668 42.668s-19.2 42.668-42.668 42.668z" />
<glyph unicode="&#xe672;" glyph-name="phone" d="M682.668 736h-341.334c-46.932 0-85.334-38.4-85.334-85.334v-597.332c0-46.932 38.4-85.332 85.332-85.332h341.332c46.932 0 85.332 38.4 85.332 85.332v597.332c0 46.932-38.4 85.334-85.332 85.334zM554.668 10.668h-85.332v85.332h85.332v-85.332zM682.668 138.668h-341.334v512h341.334v-512z" />
<glyph unicode="&#xe673;" glyph-name="phone-portrait" d="M896 480h-298.666v-85.334h298.666v-341.334h-298.666c0-46.932-42.668-85.332-42.668-85.332h341.332c46.932 0 85.332 38.4 85.332 85.332v341.334c0 46.932-38.4 85.332-85.332 85.332zM426.666 736h-341.334c-46.932 0-85.332-38.4-85.332-85.334v-597.332c0-46.932 38.4-85.332 85.332-85.332h341.334c46.932 0 85.334 38.4 85.334 85.332v597.332c0 46.932-38.4 85.334-85.332 85.334zM298.666 10.668h-85.332v85.332h85.332v-85.332zM426.666 138.668h-341.334v512h341.334v-512z" />
<glyph unicode="&#xe674;" glyph-name="calculator" d="M170.668 181.334h128v128h-128v-128zM213.332 266.668h42.668v-42.668h-42.668v42.668zM341.334 181.334h128v128h-128v-128zM384 266.668h42.668v-42.668h-42.668v42.668zM341.334 10.668h128v128h-128v-128zM384 96h42.668v-42.668h-42.668v42.668zM170.668 10.668h128v128h-128v-128zM213.332 96h42.668v-42.668h-42.668v42.668zM512 181.334h128v128h-128v-128zM554.668 266.668h42.668v-42.668h-42.668v42.668zM426.666 437.334h42.666v42.668h-42.668v-42.668zM341.334 437.334h42.666v42.668h-42.668v-42.668zM170.668 352h682.668v384h-682.668v-384zM213.332 693.334h597.332v-298.666h-597.332v298.666zM853.332 864h-682.668c-70.698 0-128-57.3-128-128v-768c0-70.698 57.302-128 128-128h682.668c70.698 0 128 57.3 128 128v768c0 70.698-57.302 128-128 128zM896-32c0-23.596-19.072-42.668-42.668-42.668h-682.668c-23.594 0-42.668 19.072-42.668 42.668v768c0 23.594 19.072 42.666 42.668 42.666h682.668c23.596 0 42.668-19.072 42.668-42.666v-768zM512 10.668h128v128h-128v-128zM554.668 96h42.668v-42.668h-42.668v42.668zM682.668 10.668h170.668v298.668h-170.668v-298.666zM725.332 266.668h85.332v-213.332h-85.332v213.332zM256 437.334h42.668v42.668h-42.668v-42.668z" />
<glyph unicode="&#xe675;" glyph-name="bag" d="M768 565.334v128.17l-128 127.83h-256l-128-127.83v-128.17h-128v-725.332h768v725.332h-128zM384 736h256l42.668-42.668h-341.334l42.666 42.668zM682.668 650.668v-85.332h-42.668v85.332h42.668zM597.332 650.668v-85.332h-170.668v85.332h170.668zM341.334 650.668h42.666v-85.332h-42.668v85.332zM810.668-74.666h-597.332v554.668h597.332v-554.668z" />
<glyph unicode="&#xe676;" glyph-name="diamond" d="M742.74 780.076h-461.484l-281.26-278.74 512-577.408 512 577.408-281.26 278.74zM921.344 478.806l-0.596 2.602h-379.818l182.1 196.652 198.314-199.252zM443.648 122.198l-299.648 316.544h197.332l-19.84-9.516 122.156-307.030zM364.246 438.742h295.424l-147.668-369.238-147.754 369.238zM682.668 438.742h197.248l-299.648-316.544 122.154 307.030-19.754 9.516zM512 512.896l-166.998 181.846h333.91l-166.912-181.846zM300.928 676.438l182.1-195.028h-379.86l-0.512-0.98 198.272 196.010z" />
<glyph unicode="&#xe677;" glyph-name="drink" d="M298.666 96c0-23.564 19.104-42.668 42.666-42.668s42.668 19.102 42.668 42.668c0 23.564-19.104 42.668-42.668 42.668s-42.668-19.102-42.668-42.668zM426.666 96c0-23.564 19.104-42.668 42.666-42.668s42.668 19.102 42.668 42.668c0 23.564-19.104 42.668-42.668 42.668s-42.668-19.102-42.668-42.668zM554.668 96c0-23.564 19.102-42.668 42.668-42.668s42.668 19.102 42.668 42.668c0 23.564-19.102 42.668-42.668 42.668s-42.668-19.102-42.668-42.668zM256 202.668c0-11.782 9.55-21.332 21.332-21.332s21.332 9.552 21.332 21.332c0 11.782-9.55 21.332-21.332 21.332s-21.332-9.552-21.332-21.332zM341.334 202.668c0-11.782 9.55-21.332 21.334-21.332s21.332 9.552 21.332 21.332c0 11.782-9.55 21.332-21.332 21.332s-21.332-9.552-21.332-21.332zM426.666 202.668c0-11.782 9.55-21.332 21.334-21.332s21.332 9.552 21.332 21.332c0 11.782-9.55 21.332-21.332 21.332s-21.332-9.552-21.332-21.332zM512 202.668c0-11.782 9.552-21.332 21.332-21.332s21.332 9.552 21.332 21.332c0 11.782-9.552 21.332-21.332 21.332s-21.332-9.552-21.332-21.332zM597.332 202.668c0-11.782 9.552-21.332 21.332-21.332s21.332 9.552 21.332 21.332c0 11.782-9.552 21.332-21.332 21.332s-21.332-9.552-21.332-21.332zM640 288c0-11.782 9.552-21.332 21.332-21.332s21.332 9.552 21.332 21.332c0 11.782-9.552 21.332-21.332 21.332s-21.332-9.552-21.332-21.332zM554.668 288c0-11.782 9.552-21.332 21.332-21.332s21.332 9.552 21.332 21.332c0 11.782-9.552 21.332-21.332 21.332s-21.332-9.552-21.332-21.332zM469.334 288c0-11.782 9.55-21.332 21.334-21.332s21.332 9.552 21.332 21.332c0 11.782-9.55 21.332-21.332 21.332s-21.332-9.552-21.332-21.332zM384 288c0-11.782 9.55-21.332 21.332-21.332s21.332 9.552 21.332 21.332c0 11.782-9.55 21.332-21.332 21.332s-21.332-9.552-21.332-21.332zM298.666 288c0-11.782 9.55-21.332 21.334-21.332s21.332 9.552 21.332 21.332c0 11.782-9.55 21.332-21.332 21.332s-21.332-9.552-21.332-21.332zM213.332 288c0-11.782 9.55-21.332 21.332-21.332s21.332 9.552 21.332 21.332c0 11.782-9.55 21.332-21.332 21.332s-21.332-9.552-21.332-21.332zM836.096 592.3l38.188 76.33-299.948 157.696-105.002-260.948h-341.334v-640.044h85.332v-85.332h426.668v85.332h128v640.044h-213.332l69.462 140.628 211.968-113.706zM597.332-74.666h-298.666v42.668h298.666v-42.668zM682.668 480.044v-469.376h-469.334v42.668c23.594 0 42.666 19.072 42.666 42.668s-19.072 42.668-42.668 42.668v341.376h469.334z" />
<glyph unicode="&#xe678;" glyph-name="shorts" d="M42.668 736v-725.334h384v-85.332h554.668v810.668h-938.668zM469.334 96h-341.334v42.668h341.334v-42.668zM896 10.668h-384v42.668h384v-42.668zM896 608h-42.668v-42.668h42.668v-469.332h-384v256h-42.668v-170.668h-341.334v215.382c31.7 2.432 116.18 15.444 116.18 84.778l-116.18-77.44v246.612h768v-42.666zM884.182 396.16l-128 85.332c0-85.332 128-85.332 128-85.332zM810.668 608h-42.668v-42.668h42.668v42.668zM725.332 608h-42.668v-42.668h42.668v42.668zM640 608h-42.668v-42.668h42.668v42.668zM554.668 608h-42.668v-42.668h42.668v42.668zM469.334 608h-42.666v-42.668h42.668v42.668zM384 608h-42.668v-42.668h42.668v42.668zM298.666 608h-42.668v-42.668h42.668v42.668zM213.332 608h-42.668v-42.668h42.668v42.668z" />
<glyph unicode="&#xe679;" glyph-name="vcard" d="M469.334 522.668h-298.666v-341.334h298.666v341.334zM426.666 245.292c0 35.328-47.744 63.956-106.666 63.956s-106.668-28.63-106.668-63.956v234.71h213.332v-234.71zM256 373.248c0-35.346 28.654-64 64-64s64 28.654 64 64c0 35.346-28.654 64-64 64s-64-28.654-64-64zM935.636 693.334h-853.332c-47.146 0-82.304-34.432-82.304-81.492v-512c0-47.188 35.156-89.174 82.304-89.174h853.332c47.104 0 88.364 41.984 88.364 89.174v512c0 47.062-41.26 81.494-88.364 81.494zM938.668 96h-853.332v512h853.332v-512zM554.668 522.668h298.668v-85.334h-298.666zM554.668 394.668h298.668v-42.668h-298.666zM554.668 309.334h298.668v-42.668h-298.666zM554.668 224h128v-42.668h-128zM725.248 224h42.752v-42.752h-42.752z" />
<glyph unicode="&#xe67a;" glyph-name="sun" d="M1023.404 352l-113.408 130.604 15.744 172.884-167.764 38.272-87.936 149.418-158.038-68.822-158.122 68.822-87.85-149.418-167.808-38.316 15.7-172.844-113.322-130.602 113.322-130.604-15.7-172.928 167.85-38.23 87.936-149.418 157.996 68.736 158.038-68.692 87.85 149.332 167.894 38.23-15.744 173.014 113.366 130.56zM704.812 83.926l-68.822-117.076-123.99 53.846-123.948-53.888-68.906 117.076-131.67 30.124 12.33 135.51-88.96 102.486 88.96 102.358-12.33 135.596 131.754 30.122 68.736 116.992 124.032-53.844 123.948 53.888 68.822-116.992 131.668-30.124-12.332-135.51 88.96-102.486-88.96-102.442 12.332-135.596-131.628-30.038zM512 624.172c-148.652 0-269.61-122.112-269.61-272.172 0-150.1 120.96-272.172 269.61-272.172s269.61 122.068 269.61 272.172c0 150.060-120.96 272.172-269.61 272.172zM512 121.728c-125.782 0-228.14 103.296-228.14 230.272s102.356 230.272 228.14 230.272c125.74 0 228.14-103.296 228.14-230.272s-102.4-230.272-228.14-230.272z" />
<glyph unicode="&#xe67b;" glyph-name="bill" d="M853.332 522.668v128h-853.332v-512h128v-128h853.332v512h-128zM128 224h-42.668v341.334h682.668v-42.668h-640v-298.668zM896 96h-682.668v341.334h682.668v-341.334zM256 394.668v-256h597.332v256h-597.332zM298.666 181.334v170.668h139.988c-7.38-12.586-11.904-27.092-11.904-42.668v-85.332c0-15.572 4.524-30.038 11.948-42.668h-140.032zM640 245.334c0-35.328-28.672-64-64-64h-42.668c-35.328 0-64 28.672-64 64v42.668c0 35.328 28.672 64 64 64h42.668c35.328 0 64-28.672 64-64v-42.668zM810.668 181.334h-139.818c7.38 12.63 11.904 27.092 11.904 42.668v85.332c0 15.572-4.524 30.080-11.904 42.668h139.818v-170.668z" />
<glyph unicode="&#xe67c;" glyph-name="coffee" d="M907.776 565.334l-71.082 213.332h-111.488v42.668h-256v-42.668h-291.328l-71.082-213.332h63.914l85.332-725.332h502.486l85.332 725.332h63.914zM239.402 693.334h315.178v42.668h85.332v-42.668h135.338l14.25-42.666h-564.308l14.208 42.666zM271.744 437.334h471.212l-25.088-213.334h-421.036l-25.088 213.334zM331.948-74.666l-30.122 256h410.964l-30.080-256h-350.762zM747.948 480h-481.28l-10.026 85.332h501.334l-10.028-85.332z" />
<glyph unicode="&#xe67d;" glyph-name="tv2" d="M777.174 693.334h-134.826l-68.268 85.334h-62.080v42.668h-42.666v-42.668h-44.928l-56.918-85.334h-187.648c-70.57 0-137.174-38.57-137.174-109.184v-512c0-70.572 85.332-146.816 128-146.816v-85.332h128v85.332h341.334v-85.332h128v85.332c85.332 0 128 76.246 128 146.816v512c0 70.614-48.256 109.184-118.826 109.184zM447.232 736h106.324l34.092-42.668h-168.876l28.46 42.668zM810.668 72.15c0-23.51-9.984-61.482-33.494-61.482h-597.332c-23.552 0-51.84 37.972-51.84 61.482v512c0 23.552 28.288 23.852 51.84 23.852h597.332c23.51 0 33.494-0.298 33.494-23.852v-512zM170.668 181.334h597.332v341.334h-597.332v-341.334zM213.332 480h512v-256h-512v256zM426.624 53.334h85.248v85.332h-85.248v-85.332z" />
<glyph unicode="&#xe67e;" glyph-name="newspaper" d="M256 181.334h512v256h-512v-256zM298.666 394.668h426.666v-170.668h-426.666v170.668zM256 522.668h512v-42.666h-512zM256 138.668h213.332v-42.668h-213.332zM256 53.334h128v-42.668h-128zM428.16 50.816h42.666v-42.668h-42.668zM554.668 138.668h213.332v-42.668h-213.332zM554.668 53.334h213.332v-42.668h-213.332zM853.332 693.334v40.15c0 49.45-42.582 87.85-147.84 87.85h-512c-70.57 0-108.16-59.904-108.16-130.518v-725.332c0-70.572 37.588-125.482 108.16-125.482h597.332c70.572 0 62.506 0 147.84 0v853.332h-85.332zM853.332-74.666h-659.84c-23.51 0-22.826 16.682-22.826 40.15v725.332c0 23.51-0.682 45.184 22.826 45.184h574.506v-42.666h-512v-85.334h597.332v-682.668z" />
<glyph unicode="&#xe67f;" glyph-name="stack" d="M896 608v128h-896v-640h128v-128h896v640h-128zM128 181.334h-42.668v469.334h725.332v-42.666h-682.668v-426.668zM938.668 53.334h-725.332v469.334h725.332v-469.334z" />
<glyph unicode="&#xe680;" glyph-name="syringe" d="M836.352 646.188l60.332-60.33 60.332 60.33-150.826 150.826-60.374-60.33 60.332-60.332-90.538-90.538-181.034 181.036-60.332-60.332 60.332-60.332-452.48-452.566 103.424-103.466-118.528-183.168 183.168 118.486 103.424-103.424 452.608 452.566 60.332-60.332 60.332 60.332-181.034 180.992 90.538 90.58zM745.812 434.944l-90.582-90.496-90.496 90.54-30.164-30.166 90.496-90.54-60.332-60.374-90.496 90.538-30.166-30.164 90.496-90.538-60.332-60.332-90.496 90.538-30.166-30.164 90.496-90.538-90.496-90.496-150.826 150.87 392.15 392.192 150.912-150.868z" />
<glyph unicode="&#xe681;" glyph-name="health" d="M886.826 727.766c-257.75 36.652-515.028 36.736-773.376-0.086-66.772-9.984-113.45-73.174-113.45-140.928v-469.334c0-67.754 38.74-130.986 105.9-141.056 128.896-18.346 252.416-27.606 382.634-27.606s273.322 9.302 402.516 27.648c66.86 10.028 132.95 73.26 132.95 141.014v469.248c0 67.754-69.932 130.986-137.174 141.1zM85.332 586.668c0 25.812 7.594 52.82 32.598 56.576 112.724 16 221.27 24.532 334.036 26.112l-167.212-296.788h-199.424v214.1zM938.668 117.42c0-25.812-38.74-52.778-63.828-56.534-249.812-35.54-499.584-35.456-748.756-0.044-25.43 3.798-40.746 30.72-40.746 56.576v169.812h250.070l75.562 117.676 36.224-306.348 219.392 188.672h272.086v-169.812zM938.668 372.566h-302.42l-121.942-120.022-46.548 417.11c6.998 0.044 13.782 0.384 20.778 0.384 126.208 0 265.3-9.044 389.888-26.708 25.428-3.84 60.246-30.804 60.246-56.576v-214.188zM682.752 565.42h42.496v-42.752h-42.496zM768 565.42h42.752v-42.752h-42.752z" />
<glyph unicode="&#xe682;" glyph-name="bolt" d="M708.65 369.708l-184.788 39.68 85.292 397.056-293.802-439.552 148.908-32-93.908-437.292 338.304 472.108z" />
<glyph unicode="&#xe683;" glyph-name="pill" d="M874.068 714.028c-99.84 99.798-262.23 99.798-362.112 0l-361.984-362.028c-99.796-99.84-99.84-262.23 0-362.028s262.188-99.798 362.026 0l362.070 362.028c99.754 99.84 99.84 262.23 0 362.028zM813.74 653.696c66.518-66.56 66.518-174.848 0-241.364l-181.076-180.992-241.322 241.324 180.992 181.034c66.602 66.56 174.848 66.56 241.408 0z" />
<glyph unicode="&#xe684;" glyph-name="bones" d="M931.158 233.174c-3.414 2.004-6.912 3.84-10.538 5.674l-7.936 5.164-173.952 122.154 50.518 37.676c47.744-20.266 111.148 19.84 138.582 37.076 69.674 43.99 90.496 136.404 46.506 205.996-40.106 63.488-120.49 86.486-187.178 56.66l-0.726 1.28c-37.674 59.648-116.908 77.568-176.596 39.936-39.168-24.748-67.84-95.104-36.566-174.508l-60.586-45.396-69.332 48.682c28.758 80.34-2.004 149.76-41.9 173.312-60.844 35.84-139.52 15.488-175.232-45.312l-0.854-1.238c-67.54 27.606-147.2 2.176-185.344-62.508-41.772-70.912-18.132-162.644 52.82-204.5 27.948-16.428 92.672-54.486 139.734-32.768l59.008-41.344-177.408-132.822-7.766-5.376c-3.498-1.92-6.912-3.84-10.24-6.016-69.716-43.904-90.496-136.404-46.592-205.996 43.988-69.59 136.406-90.496 205.996-46.506 33.322 20.992 56.32 53.674 65.238 91.648l196.778 146.9 193.836-135.68c10.112-37.674 34.134-69.588 68.052-89.6 70.912-41.812 162.73-18.092 204.46 52.822 41.898 70.996 18.134 162.73-52.778 204.586zM590.932 469.932l96.768 71.68-22.74 36.096c-32.086 50.73-16.298 89.344-9.514 94.932 19.84 12.586 46.25 6.572 58.836-13.27l45.568-72.148 54.1 34.176c29.78 18.816 69.418 9.9 88.32-19.924 18.816-29.824 9.812-69.504-20.010-88.32-32.682-20.65-49.152-27.436-57.472-28.842l-19.37 30.676-152.020-110.506-79.446 52.822 16.98 12.628zM396.46 217.686l-155.436-112.98-1.792-21.076c-1.664-20.48-12.33-38.316-29.184-48.896-29.824-18.816-69.504-9.9-88.32 19.924s-9.9 69.418 19.926 88.236c3.628 2.346 7.51 4.268 11.52 5.76l42.668 28.5 190.25 141.014 77.396-51.668-67.028-48.812zM910.506 72.022c-17.92-30.422-57.302-40.576-87.722-22.656-17.152 10.154-28.288 27.562-30.634 48l-2.518 21.076-576.64 392.704-18.474-31.404c-8.362 1.152-25.004 7.51-58.368 27.094-30.38 18.004-40.49 57.26-22.656 87.68 18.004 30.42 57.258 40.576 87.638 22.656l98.56 41.002c11.904 20.352 38.188 27.008 58.412 15.104 6.826-5.334 23.85-43.52-6.572-95.148l-21.716-36.778 502.826-349.142 43.52-27.178c4.096-1.322 8.020-3.244 11.606-5.332 30.464-18.048 40.576-57.302 22.74-87.68z" />
<glyph unicode="&#xe685;" glyph-name="lab" d="M895.872 149.676c0 0-298.070 299.136-298.624 330.326v42.752h85.504v256h-384.084v-256h85.334l0.17-42.752c-0.556-31.188-298.624-330.326-298.624-330.326-56.192-63.062-44.416-114.602-34.432-137.9s48.172-86.442 75.82-86.442h727.552c27.648 0 65.792 63.104 75.776 86.4s21.802 74.88-34.39 137.942zM851.884 45.356c-3.754-8.704-13.312-24.236-21.332-34.688h-679.68c-8.022 10.452-17.58 25.984-21.29 34.688-6.144 14.25 8.192 34.304 18.26 45.908 320.554 321.792 321.024 350.634 321.664 388.692v127.958l-85.632 0.084 0.128 85.248h213.248l0.128-85.248h-85.376l-0.044-129.494c0.64-36.564 1.11-65.45 321.664-387.244 10.028-11.606 24.32-31.658 18.26-45.908zM512 352h-42.752l-256-256v-42.752h554.752v42.752l-256 256zM426.752 224l42.496 85.248h42.752l42.752-85.248h-128z" />
<glyph unicode="&#xe686;" glyph-name="clipboard" d="M85.332 864v-1024h853.332v1024h-853.332zM853.332-74.666h-682.668v853.332h682.668v-853.332zM810.668 693.334h-128v42.668h-341.334v-42.668h-128v-725.332h597.332v725.332zM384 693.334h256v-42.666h-256v42.666zM768 10.668h-512v640h85.332v-42.666h341.332v42.666h85.332v-640zM298.666 480h384v85.332h-384v-85.332zM298.666 394.668h384v42.666h-384v-42.666zM298.666 309.334h384v42.668h-384v-42.668zM298.666 224h384v42.668h-384v-42.668zM298.666 138.668h170.666v42.668h-170.668v-42.668z" />
<glyph unicode="&#xe687;" glyph-name="mug" d="M682.326 522.668v-384h42.668v384h-42.668zM255.658 778.668v-170.666h-170.668v-597.334h170.668v-42.668c0-23.466 20.992-42.668 44.416-42.668h595.584v853.332h-640zM298.324 181.334h-42.668v256h42.668v-256zM810.326 96h-42.668v-42.668h42.668v-42.668h-469.334v42.668h42.666v42.668h-42.668v384h-128v-341.334h85.332v-42.668h-128v426.668h170.668v42.668h469.334v-469.334zM810.326 608h-469.334v85.332h469.334v-85.332zM724.992 53.334h-42.668v42.668h42.668v-42.668zM639.658 53.334h-42.668v42.668h42.668v-42.668zM554.326 53.334h-42.668v42.668h42.668v-42.668zM468.992 53.334h-42.666v42.668h42.668v-42.668zM596.992 522.668v-384h42.668v384h-42.668z" />
<glyph unicode="&#xe688;" glyph-name="bucket" d="M896 566.060v85.332h-600.49l-49.324 139.904c-8.020 22.144-32.426 34.944-54.612 26.966s-33.748-34.26-25.728-56.448l38.996-110.464h-119.51v-85.332h-85.332v-384h128v-341.332h725.332v341.332h128v384h-85.332zM128 224.726h-85.332v298.668h42.668v-128h42.668v-170.668zM768-73.94h-554.668v256h132.096c8.832-42.668 32.342-42.668 60.074-42.668h170.666c27.732 0 51.244 0 60.076 42.668h131.754v-256zM384 202.582v0.086c0 11.732 9.6 21.332 21.332 21.332h170.836c11.732 0 21.332-9.6 21.332-21.332v-0.086c0-11.732-9.6-21.332-21.332-21.332h-170.836c-11.734 0-21.332 9.6-21.332 21.332zM768 224.726h-131.754c-8.832 42.668-32.342 42.668-60.076 42.668h-170.668c-27.734 0-51.242 0-60.074-42.668h-132.096v213.334h554.668v-213.334zM810.668 480.726h-640v85.334h640v-85.334zM938.668 224.726h-85.332v170.668h42.668v128h42.668v-298.668z" />
<glyph unicode="&#xe689;" glyph-name="select" d="M810.668 821.376h-640v-896h341.332v298.666h298.666v597.332zM469.334 10.71h-213.334v213.332h213.332v-213.332zM469.334 266.71h-213.334v213.334h213.332v-213.334zM469.334 522.71h-213.334v213.332h213.332v-213.332zM725.332 266.71h-213.332v213.334h213.332v-213.334zM725.332 522.71h-213.332v213.332h213.332v-213.332zM598.4 134.060l85.332-260.736 32 137.514h133.332l-250.668 123.222z" />
<glyph unicode="&#xe68a;" glyph-name="graph" d="M981.248-74.752h-85.248v42.752h-42.752v-42.752h-85.12v42.752h-42.752v-42.752h-85.248v42.752h-42.752v-42.752h-85.248v42.752h-42.752v-42.752h-85.248v42.752h-42.752v-42.752h-187.776l224.854 135.126 111.276 325.206 165.29-290.518 320.298 533.674-73.13 43.948-245.206-408.576-186.71 328.15-162.516-474.794-222.508-133.716v880.256h-85.248v-1024h1024v128h-42.752zM981.248 864h42.752v-42.752h-42.752zM853.248 864h42.752v-42.752h-42.752zM725.376 864h42.752v-42.752h-42.752zM597.376 864h42.752v-42.752h-42.752zM469.376 864h42.752v-42.752h-42.752zM341.376 864h42.752v-42.752h-42.752zM213.376 864h42.752v-42.752h-42.752zM85.376 864h42.752v-42.752h-42.752zM981.248 736h42.752v-42.752h-42.752zM853.248 736h42.752v-42.752h-42.752zM725.376 736h42.752v-42.752h-42.752zM597.376 736h42.752v-42.752h-42.752zM469.376 736h42.752v-42.752h-42.752zM341.376 736h42.752v-42.752h-42.752zM213.376 736h42.752v-42.752h-42.752zM85.376 736h42.752v-42.752h-42.752zM981.248 608.128h42.752v-42.752h-42.752zM725.376 608.128h42.752v-42.752h-42.752zM597.376 608.128h42.752v-42.752h-42.752zM341.376 608.128h42.752v-42.752h-42.752zM213.376 608.128h42.752v-42.752h-42.752zM85.376 608.128h42.752v-42.752h-42.752zM981.248 480.128h42.752v-42.752h-42.752zM597.376 480.128h42.752v-42.752h-42.752zM341.376 480.128h42.752v-42.752h-42.752zM213.376 480.128h42.752v-42.752h-42.752zM85.376 480.128h42.752v-42.752h-42.752zM981.248 352.044h42.752v-42.752h-42.752zM853.248 352.044h42.752v-42.752h-42.752zM213.376 352.044h42.752v-42.752h-42.752zM85.376 352.044h42.752v-42.752h-42.752zM981.248 224.044h42.752v-42.752h-42.752zM853.248 224.044h42.752v-42.752h-42.752zM469.376 224.044h42.752v-42.752h-42.752zM213.376 224.044h42.752v-42.752h-42.752zM85.376 224.044h42.752v-42.752h-42.752zM981.248 96.172h42.752v-42.752h-42.752zM853.248 96.172h42.752v-42.752h-42.752zM725.376 96.172h42.752v-42.752h-42.752zM469.376 96.172h42.752v-42.752h-42.752zM85.376 96.172h42.752v-42.752h-42.752z" />
<glyph unicode="&#xe68b;" glyph-name="crop" d="M810.668 309.334v341.334h-341.334v170.668h-256v-170.668h-170.668v-256h170.668v-341.334h341.334v-170.668h256v170.668h170.668v256h-170.668zM426.666 565.334h298.666v-298.668h-85.332v213.334h-213.332v85.332zM554.668 394.668v-85.334h-85.332v85.334h85.332zM256 480h-128v85.332h128v-85.332zM725.332-32h-85.332v128h85.332v-128zM896 138.668h-597.332v597.334h85.332v-512h512v-85.332z" />
<glyph unicode="&#xe68c;" glyph-name="heart2" d="M934.176 716.854c-116.128 115.072-301.824 117.472-422.112 9.216-120.32 108.256-305.952 105.856-422.144-9.216-119.712-118.528-119.712-310.688 0-429.28 34.208-33.888 353.696-350.112 353.696-350.112 37.856-37.504 99.072-37.504 136.896 0 0 0 349.824 346.304 353.696 350.112 119.744 118.592 119.744 310.752-0.032 429.28zM888.576 332.758l-353.696-350.112c-12.576-12.512-33.088-12.512-45.6 0l-353.696 350.112c-94.4 93.44-94.4 245.472 0 338.912 91.008 90.080 237.312 93.248 333.088 7.104l43.392-39.040 43.36 39.040c95.808 86.144 242.112 83.008 333.12-7.104 94.4-93.408 94.4-245.44 0.032-338.912zM296.096 645.302c8.864 0 16-7.168 16-16s-7.168-16-16-16h-0.032c-57.408 0-103.968-46.56-103.968-103.968v-0.032c0-8.832-7.168-16-16-16s-16 7.168-16 16v0c0 75.072 60.832 135.904 135.872 135.968 0.064 0 0.064 0.032 0.128 0.032z" />
<glyph unicode="&#xe68d;" glyph-name="cloud2" d="M829.248 464.758c-13.984 146.016-135.552 260.576-285.248 260.576-115.808 0-214.944-68.736-260.672-167.36-13.76 4.352-28.096 7.36-43.296 7.36-79.52 0-144-64.512-144-144 0-15.808 3.168-30.752 7.872-44.928-61.856-36.064-103.872-102.24-103.872-179.008 0-114.88 93.12-208 208-208v-0.064l575.968 0.064c132.576 0 240 107.424 240 240 0 116.992-83.872 214.176-194.752 235.36zM784 53.398v-0.064h-575.968c-79.392 0.064-144 64.64-144 144.064 0 51.2 26.976 97.44 72.128 123.744 43.872 25.184 46.88 30.176 28.48 75.424-3.104 9.312-4.608 17.408-4.608 24.736 0 44.128 35.872 80 80 80 0 0 20.992 1.504 43.296-7.36 36.704-14.624 40.704-0.64 58.048 37.088 36.704 79.136 116.224 130.304 202.624 130.304 115.2 0 210.432-87.136 221.568-202.688 3.936-45.824 3.936-45.824 51.68-56.736 82.752-15.808 142.752-88.384 142.752-172.512 0-97.056-78.944-176-176-176z" />
<glyph unicode="&#xe68e;" glyph-name="star2" d="M1020.192 483.51c-8.864 25.568-31.616 44.288-59.008 48.352l-266.432 39.616-115.808 240.448c-12.192 25.248-38.272 41.408-66.944 41.408s-54.752-16.16-66.944-41.408l-115.808-240.448-266.464-39.616c-27.36-4.064-50.112-22.784-58.944-48.352-8.8-25.632-2.144-53.856 17.184-73.12l195.264-194.944-45.28-270.432c-4.608-27.232 7.2-54.56 30.336-70.496 12.704-8.736 27.648-13.184 42.592-13.184 12.288 0 24.608 3.008 35.776 8.992l232.288 125.056 232.32-125.056c11.168-5.984 23.488-8.992 35.744-8.992 14.944 0 29.888 4.448 42.624 13.184 23.136 15.936 34.88 43.264 30.304 70.496l-45.312 270.432 195.328 194.944c19.296 19.296 25.92 47.52 17.184 73.12zM754.816 265.718c-16.384-16.32-23.808-39.328-20.064-61.888l45.312-270.432-232.32 124.992c-11.136 6.016-23.424 8.992-35.776 8.992-12.288 0-24.608-3.008-35.744-8.992l-232.32-124.992 45.312 270.432c3.776 22.56-3.648 45.568-20.032 61.888l-195.264 194.944 266.432 39.68c24.352 3.616 45.312 18.848 55.776 40.576l115.872 240.384 115.84-240.416c10.496-21.728 31.424-36.928 55.744-40.576l266.496-39.68-195.264-194.912z" />
</font>
</defs>
</svg>
